<?xml version="1.0" encoding="utf-8" standalone="no"?>
<!DOCTYPE svg PUBLIC "-//W3C//DTD SVG 1.1//EN"
  "http://www.w3.org/Graphics/SVG/1.1/DTD/svg11.dtd">
<!-- Created with matplotlib (http://matplotlib.org/) -->
<svg height="383pt" version="1.1" viewBox="0 0 487 383" width="487pt" xmlns="http://www.w3.org/2000/svg" xmlns:xlink="http://www.w3.org/1999/xlink">
 <defs>
  <style type="text/css">
*{stroke-linecap:square;stroke-linejoin:round;}
  </style>
 </defs>
 <g id="figure_1">
  <g id="patch_1">
   <path d="
M0 383.755
L487.019 383.755
L487.019 0
L0 0
z
" style="fill:none;opacity:0.0;"/>
  </g>
  <g id="axes_1">
   <g id="patch_2">
    <path d="
M40.6194 350.138
L487.019 350.138
L487.019 4.53844
L40.6194 4.53844
z
" style="fill:none;opacity:0.0;"/>
   </g>
   <g id="PathCollection_1">
    <defs>
     <path d="
M-2.48253e-16 3.16228
L3.16228 0
L2.48253e-16 -3.16228
L-3.16228 -4.96507e-16
z
" id="C0_0_dea3496d8a"/>
    </defs>
    <g clip-path="url(#p366f29e1c0)">
     <use style="fill:#ff0000;stroke:#ff0000;stroke-linecap:butt;stroke-width:2.0;" x="56.8810892857" xlink:href="#C0_0_dea3496d8a" y="145.050730731"/>
    </g>
    <g clip-path="url(#p366f29e1c0)">
     <use style="fill:#ff0000;stroke:#ff0000;stroke-linecap:butt;stroke-width:2.0;" x="57.359375" xlink:href="#C0_0_dea3496d8a" y="147.758742914"/>
    </g>
    <g clip-path="url(#p366f29e1c0)">
     <use style="fill:#ff0000;stroke:#ff0000;stroke-linecap:butt;stroke-width:2.0;" x="62.1422321429" xlink:href="#C0_0_dea3496d8a" y="149.397004254"/>
    </g>
    <g clip-path="url(#p366f29e1c0)">
     <use style="fill:#ff0000;stroke:#ff0000;stroke-linecap:butt;stroke-width:2.0;" x="71.0702321429" xlink:href="#C0_0_dea3496d8a" y="179.678155535"/>
    </g>
    <g clip-path="url(#p366f29e1c0)">
     <use style="fill:#ff0000;stroke:#ff0000;stroke-linecap:butt;stroke-width:2.0;" x="80.9548035714" xlink:href="#C0_0_dea3496d8a" y="189.740751423"/>
    </g>
    <g clip-path="url(#p366f29e1c0)">
     <use style="fill:#ff0000;stroke:#ff0000;stroke-linecap:butt;stroke-width:2.0;" x="109.014232143" xlink:href="#C0_0_dea3496d8a" y="242.166356417"/>
    </g>
    <g clip-path="url(#p366f29e1c0)">
     <use style="fill:#ff0000;stroke:#ff0000;stroke-linecap:butt;stroke-width:2.0;" x="127.667375" xlink:href="#C0_0_dea3496d8a" y="267.726824724"/>
    </g>
    <g clip-path="url(#p366f29e1c0)">
     <use style="fill:#ff0000;stroke:#ff0000;stroke-linecap:butt;stroke-width:2.0;" x="154.610803571" xlink:href="#C0_0_dea3496d8a" y="277.46878968"/>
    </g>
    <g clip-path="url(#p366f29e1c0)">
     <use style="fill:#ff0000;stroke:#ff0000;stroke-linecap:butt;stroke-width:2.0;" x="287.095946429" xlink:href="#C0_0_dea3496d8a" y="312.987183982"/>
    </g>
    <g clip-path="url(#p366f29e1c0)">
     <use style="fill:#ff0000;stroke:#ff0000;stroke-linecap:butt;stroke-width:2.0;" x="337.953660714" xlink:href="#C0_0_dea3496d8a" y="296.86709637"/>
    </g>
    <g clip-path="url(#p366f29e1c0)">
     <use style="fill:#ff0000;stroke:#ff0000;stroke-linecap:butt;stroke-width:2.0;" x="383.071946429" xlink:href="#C0_0_dea3496d8a" y="256.38357397"/>
    </g>
    <g clip-path="url(#p366f29e1c0)">
     <use style="fill:#ff0000;stroke:#ff0000;stroke-linecap:butt;stroke-width:2.0;" x="403.638232143" xlink:href="#C0_0_dea3496d8a" y="226.785779816"/>
    </g>
    <g clip-path="url(#p366f29e1c0)">
     <use style="fill:#ff0000;stroke:#ff0000;stroke-linecap:butt;stroke-width:2.0;" x="432.016517857" xlink:href="#C0_0_dea3496d8a" y="163.362586179"/>
    </g>
    <g clip-path="url(#p366f29e1c0)">
     <use style="fill:#ff0000;stroke:#ff0000;stroke-linecap:butt;stroke-width:2.0;" x="458.003375" xlink:href="#C0_0_dea3496d8a" y="130.109079473"/>
    </g>
    <g clip-path="url(#p366f29e1c0)">
     <use style="fill:#ff0000;stroke:#ff0000;stroke-linecap:butt;stroke-width:2.0;" x="466.931375" xlink:href="#C0_0_dea3496d8a" y="91.8969043011"/>
    </g>
    <g clip-path="url(#p366f29e1c0)">
     <use style="fill:#ff0000;stroke:#ff0000;stroke-linecap:butt;stroke-width:2.0;" x="469.163375" xlink:href="#C0_0_dea3496d8a" y="56.5967929461"/>
    </g>
    <g clip-path="url(#p366f29e1c0)">
     <use style="fill:#ff0000;stroke:#ff0000;stroke-linecap:butt;stroke-width:2.0;" x="479.047946429" xlink:href="#C0_0_dea3496d8a" y="44.2395261847"/>
    </g>
    <g clip-path="url(#p366f29e1c0)">
     <use style="fill:#ff0000;stroke:#ff0000;stroke-linecap:butt;stroke-width:2.0;" x="74.5776607143" xlink:href="#C0_0_dea3496d8a" y="259.628150555"/>
    </g>
    <g clip-path="url(#p366f29e1c0)">
     <use style="fill:#ff0000;stroke:#ff0000;stroke-linecap:butt;stroke-width:2.0;" x="76.0125178571" xlink:href="#C0_0_dea3496d8a" y="169.47397632"/>
    </g>
    <g clip-path="url(#p366f29e1c0)">
     <use style="fill:#ff0000;stroke:#ff0000;stroke-linecap:butt;stroke-width:2.0;" x="87.3319464286" xlink:href="#C0_0_dea3496d8a" y="154.50752563"/>
    </g>
    <g clip-path="url(#p366f29e1c0)">
     <use style="fill:#ff0000;stroke:#ff0000;stroke-linecap:butt;stroke-width:2.0;" x="92.1148035714" xlink:href="#C0_0_dea3496d8a" y="196.550742935"/>
    </g>
    <g clip-path="url(#p366f29e1c0)">
     <use style="fill:#ff0000;stroke:#ff0000;stroke-linecap:butt;stroke-width:2.0;" x="107.419946429" xlink:href="#C0_0_dea3496d8a" y="217.694011994"/>
    </g>
    <g clip-path="url(#p366f29e1c0)">
     <use style="fill:#ff0000;stroke:#ff0000;stroke-linecap:butt;stroke-width:2.0;" x="134.522803571" xlink:href="#C0_0_dea3496d8a" y="267.699757162"/>
    </g>
    <g clip-path="url(#p366f29e1c0)">
     <use style="fill:#ff0000;stroke:#ff0000;stroke-linecap:butt;stroke-width:2.0;" x="153.175946429" xlink:href="#C0_0_dea3496d8a" y="267.718425036"/>
    </g>
    <g clip-path="url(#p366f29e1c0)">
     <use style="fill:#ff0000;stroke:#ff0000;stroke-linecap:butt;stroke-width:2.0;" x="179.162803571" xlink:href="#C0_0_dea3496d8a" y="296.894422557"/>
    </g>
    <g clip-path="url(#p366f29e1c0)">
     <use style="fill:#ff0000;stroke:#ff0000;stroke-linecap:butt;stroke-width:2.0;" x="298.574803571" xlink:href="#C0_0_dea3496d8a" y="312.754784214"/>
    </g>
    <g clip-path="url(#p366f29e1c0)">
     <use style="fill:#ff0000;stroke:#ff0000;stroke-linecap:butt;stroke-width:2.0;" x="336.040517857" xlink:href="#C0_0_dea3496d8a" y="297.086830379"/>
    </g>
    <g clip-path="url(#p366f29e1c0)">
     <use style="fill:#ff0000;stroke:#ff0000;stroke-linecap:butt;stroke-width:2.0;" x="373.984517857" xlink:href="#C0_0_dea3496d8a" y="270.179277567"/>
    </g>
    <g clip-path="url(#p366f29e1c0)">
     <use style="fill:#ff0000;stroke:#ff0000;stroke-linecap:butt;stroke-width:2.0;" x="403.000517857" xlink:href="#C0_0_dea3496d8a" y="237.253261127"/>
    </g>
    <g clip-path="url(#p366f29e1c0)">
     <use style="fill:#ff0000;stroke:#ff0000;stroke-linecap:butt;stroke-width:2.0;" x="423.088517857" xlink:href="#C0_0_dea3496d8a" y="184.766445973"/>
    </g>
    <g clip-path="url(#p366f29e1c0)">
     <use style="fill:#ff0000;stroke:#ff0000;stroke-linecap:butt;stroke-width:2.0;" x="447.799946429" xlink:href="#C0_0_dea3496d8a" y="153.721416329"/>
    </g>
    <g clip-path="url(#p366f29e1c0)">
     <use style="fill:#ff0000;stroke:#ff0000;stroke-linecap:butt;stroke-width:2.0;" x="456.090232143" xlink:href="#C0_0_dea3496d8a" y="115.04969937"/>
    </g>
    <g clip-path="url(#p366f29e1c0)">
     <use style="fill:#ff0000;stroke:#ff0000;stroke-linecap:butt;stroke-width:2.0;" x="465.177660714" xlink:href="#C0_0_dea3496d8a" y="79.6530667153"/>
    </g>
    <g clip-path="url(#p366f29e1c0)">
     <use style="fill:#ff0000;stroke:#ff0000;stroke-linecap:butt;stroke-width:2.0;" x="472.192517857" xlink:href="#C0_0_dea3496d8a" y="57.5600389956"/>
    </g>
   </g>
   <g id="line2d_1">
    <path clip-path="url(#p366f29e1c0)" d="
M40.9382 123.349
L48.9097 138.901
L55.2868 150.903
L61.6639 162.517
L68.0411 173.74
L74.4182 184.574
L80.7954 195.018
L87.1725 205.072
L93.5497 214.737
L99.9268 224.012
L106.304 232.897
L112.681 241.393
L119.058 249.499
L125.435 257.216
L131.813 264.542
L138.19 271.48
L144.567 278.027
L150.944 284.185
L157.321 289.953
L163.698 295.331
L168.481 299.109
L173.264 302.668
L178.047 306.008
L182.83 309.129
L187.613 312.03
L192.395 314.712
L197.178 317.175
L201.961 319.419
L206.744 321.443
L211.527 323.249
L216.31 324.835
L221.093 326.202
L225.875 327.35
L230.658 328.279
L235.441 328.988
L240.224 329.478
L245.007 329.75
L249.79 329.801
L254.573 329.634
L259.355 329.248
L264.138 328.642
L268.921 327.817
L273.704 326.773
L278.487 325.51
L283.27 324.028
L288.053 322.326
L292.835 320.405
L297.618 318.265
L302.401 315.906
L307.184 313.328
L311.967 310.53
L316.75 307.514
L321.533 304.278
L326.315 300.823
L331.098 297.149
L335.881 293.255
L340.664 289.142
L347.041 283.318
L353.418 277.104
L359.795 270.5
L366.173 263.507
L372.55 256.123
L378.927 248.351
L385.304 240.188
L391.681 231.636
L398.058 222.694
L404.435 213.363
L410.813 203.642
L417.19 193.531
L423.567 183.03
L429.944 172.14
L436.321 160.861
L442.698 149.191
L449.075 137.132
L455.453 124.683
L463.424 108.574
L471.395 91.8565
L479.367 74.5298
L487.338 56.5943
L487.338 56.5943" style="fill:none;stroke:#000000;stroke-width:2.5;"/>
   </g>
   <g id="matplotlib.axis_1">
    <g id="xtick_1">
     <g id="line2d_2">
      <path clip-path="url(#p366f29e1c0)" d="
M72.5051 350.138
L72.5051 4.53844" style="fill:none;stroke:#000000;stroke-dasharray:1.000000,3.000000;stroke-dashoffset:0.0;stroke-linecap:butt;stroke-width:0.5;"/>
     </g>
     <g id="line2d_3">
      <defs>
       <path d="
M0 0
L0 -4" id="mcb557df647" style="stroke:#000000;stroke-linecap:butt;stroke-width:0.5;"/>
      </defs>
      <g>
       <use style="stroke:#000000;stroke-linecap:butt;stroke-width:0.5;" x="72.5050892857" xlink:href="#mcb557df647" y="350.1384375"/>
      </g>
     </g>
     <g id="line2d_4">
      <defs>
       <path d="
M0 0
L0 4" id="mdad270ee8e" style="stroke:#000000;stroke-linecap:butt;stroke-width:0.5;"/>
      </defs>
      <g>
       <use style="stroke:#000000;stroke-linecap:butt;stroke-width:0.5;" x="72.5050892857" xlink:href="#mdad270ee8e" y="4.5384375"/>
      </g>
     </g>
     <g id="text_1">
      <!-- 335 -->
      <defs>
       <path d="
M40.5781 39.3125
Q47.6562 37.7969 51.625 33
Q55.6094 28.2188 55.6094 21.1875
Q55.6094 10.4062 48.1875 4.48438
Q40.7656 -1.42188 27.0938 -1.42188
Q22.5156 -1.42188 17.6562 -0.515625
Q12.7969 0.390625 7.625 2.20312
L7.625 11.7188
Q11.7188 9.32812 16.5938 8.10938
Q21.4844 6.89062 26.8125 6.89062
Q36.0781 6.89062 40.9375 10.5469
Q45.7969 14.2031 45.7969 21.1875
Q45.7969 27.6406 41.2812 31.2656
Q36.7656 34.9062 28.7188 34.9062
L20.2188 34.9062
L20.2188 43.0156
L29.1094 43.0156
Q36.375 43.0156 40.2344 45.9219
Q44.0938 48.8281 44.0938 54.2969
Q44.0938 59.9062 40.1094 62.9062
Q36.1406 65.9219 28.7188 65.9219
Q24.6562 65.9219 20.0156 65.0312
Q15.375 64.1562 9.8125 62.3125
L9.8125 71.0938
Q15.4375 72.6562 20.3438 73.4375
Q25.25 74.2188 29.5938 74.2188
Q40.8281 74.2188 47.3594 69.1094
Q53.9062 64.0156 53.9062 55.3281
Q53.9062 49.2656 50.4375 45.0938
Q46.9688 40.9219 40.5781 39.3125" id="BitstreamVeraSans-Roman-33"/>
       <path d="
M10.7969 72.9062
L49.5156 72.9062
L49.5156 64.5938
L19.8281 64.5938
L19.8281 46.7344
Q21.9688 47.4688 24.1094 47.8281
Q26.2656 48.1875 28.4219 48.1875
Q40.625 48.1875 47.75 41.5
Q54.8906 34.8125 54.8906 23.3906
Q54.8906 11.625 47.5625 5.09375
Q40.2344 -1.42188 26.9062 -1.42188
Q22.3125 -1.42188 17.5469 -0.640625
Q12.7969 0.140625 7.71875 1.70312
L7.71875 11.625
Q12.1094 9.23438 16.7969 8.0625
Q21.4844 6.89062 26.7031 6.89062
Q35.1562 6.89062 40.0781 11.3281
Q45.0156 15.7656 45.0156 23.3906
Q45.0156 31 40.0781 35.4375
Q35.1562 39.8906 26.7031 39.8906
Q22.75 39.8906 18.8125 39.0156
Q14.8906 38.1406 10.7969 36.2812
z
" id="BitstreamVeraSans-Roman-35"/>
      </defs>
      <g transform="translate(62.0341517857 363.0446875)scale(0.12 -0.12)">
       <use xlink:href="#BitstreamVeraSans-Roman-33"/>
       <use x="63.623046875" xlink:href="#BitstreamVeraSans-Roman-33"/>
       <use x="127.24609375" xlink:href="#BitstreamVeraSans-Roman-35"/>
      </g>
     </g>
    </g>
    <g id="xtick_2">
     <g id="line2d_5">
      <path clip-path="url(#p366f29e1c0)" d="
M152.219 350.138
L152.219 4.53844" style="fill:none;stroke:#000000;stroke-dasharray:1.000000,3.000000;stroke-dashoffset:0.0;stroke-linecap:butt;stroke-width:0.5;"/>
     </g>
     <g id="line2d_6">
      <g>
       <use style="stroke:#000000;stroke-linecap:butt;stroke-width:0.5;" x="152.219375" xlink:href="#mcb557df647" y="350.1384375"/>
      </g>
     </g>
     <g id="line2d_7">
      <g>
       <use style="stroke:#000000;stroke-linecap:butt;stroke-width:0.5;" x="152.219375" xlink:href="#mdad270ee8e" y="4.5384375"/>
      </g>
     </g>
     <g id="text_2">
      <!-- 340 -->
      <defs>
       <path d="
M31.7812 66.4062
Q24.1719 66.4062 20.3281 58.9062
Q16.5 51.4219 16.5 36.375
Q16.5 21.3906 20.3281 13.8906
Q24.1719 6.39062 31.7812 6.39062
Q39.4531 6.39062 43.2812 13.8906
Q47.125 21.3906 47.125 36.375
Q47.125 51.4219 43.2812 58.9062
Q39.4531 66.4062 31.7812 66.4062
M31.7812 74.2188
Q44.0469 74.2188 50.5156 64.5156
Q56.9844 54.8281 56.9844 36.375
Q56.9844 17.9688 50.5156 8.26562
Q44.0469 -1.42188 31.7812 -1.42188
Q19.5312 -1.42188 13.0625 8.26562
Q6.59375 17.9688 6.59375 36.375
Q6.59375 54.8281 13.0625 64.5156
Q19.5312 74.2188 31.7812 74.2188" id="BitstreamVeraSans-Roman-30"/>
       <path d="
M37.7969 64.3125
L12.8906 25.3906
L37.7969 25.3906
z

M35.2031 72.9062
L47.6094 72.9062
L47.6094 25.3906
L58.0156 25.3906
L58.0156 17.1875
L47.6094 17.1875
L47.6094 0
L37.7969 0
L37.7969 17.1875
L4.89062 17.1875
L4.89062 26.7031
z
" id="BitstreamVeraSans-Roman-34"/>
      </defs>
      <g transform="translate(141.6228125 363.0446875)scale(0.12 -0.12)">
       <use xlink:href="#BitstreamVeraSans-Roman-33"/>
       <use x="63.623046875" xlink:href="#BitstreamVeraSans-Roman-34"/>
       <use x="127.24609375" xlink:href="#BitstreamVeraSans-Roman-30"/>
      </g>
     </g>
    </g>
    <g id="xtick_3">
     <g id="line2d_8">
      <path clip-path="url(#p366f29e1c0)" d="
M231.934 350.138
L231.934 4.53844" style="fill:none;stroke:#000000;stroke-dasharray:1.000000,3.000000;stroke-dashoffset:0.0;stroke-linecap:butt;stroke-width:0.5;"/>
     </g>
     <g id="line2d_9">
      <g>
       <use style="stroke:#000000;stroke-linecap:butt;stroke-width:0.5;" x="231.933660714" xlink:href="#mcb557df647" y="350.1384375"/>
      </g>
     </g>
     <g id="line2d_10">
      <g>
       <use style="stroke:#000000;stroke-linecap:butt;stroke-width:0.5;" x="231.933660714" xlink:href="#mdad270ee8e" y="4.5384375"/>
      </g>
     </g>
     <g id="text_3">
      <!-- 345 -->
      <g transform="translate(221.462723214 363.0446875)scale(0.12 -0.12)">
       <use xlink:href="#BitstreamVeraSans-Roman-33"/>
       <use x="63.623046875" xlink:href="#BitstreamVeraSans-Roman-34"/>
       <use x="127.24609375" xlink:href="#BitstreamVeraSans-Roman-35"/>
      </g>
     </g>
    </g>
    <g id="xtick_4">
     <g id="line2d_11">
      <path clip-path="url(#p366f29e1c0)" d="
M311.648 350.138
L311.648 4.53844" style="fill:none;stroke:#000000;stroke-dasharray:1.000000,3.000000;stroke-dashoffset:0.0;stroke-linecap:butt;stroke-width:0.5;"/>
     </g>
     <g id="line2d_12">
      <g>
       <use style="stroke:#000000;stroke-linecap:butt;stroke-width:0.5;" x="311.647946429" xlink:href="#mcb557df647" y="350.1384375"/>
      </g>
     </g>
     <g id="line2d_13">
      <g>
       <use style="stroke:#000000;stroke-linecap:butt;stroke-width:0.5;" x="311.647946429" xlink:href="#mdad270ee8e" y="4.5384375"/>
      </g>
     </g>
     <g id="text_4">
      <!-- 350 -->
      <g transform="translate(301.051383929 363.0446875)scale(0.12 -0.12)">
       <use xlink:href="#BitstreamVeraSans-Roman-33"/>
       <use x="63.623046875" xlink:href="#BitstreamVeraSans-Roman-35"/>
       <use x="127.24609375" xlink:href="#BitstreamVeraSans-Roman-30"/>
      </g>
     </g>
    </g>
    <g id="xtick_5">
     <g id="line2d_14">
      <path clip-path="url(#p366f29e1c0)" d="
M391.362 350.138
L391.362 4.53844" style="fill:none;stroke:#000000;stroke-dasharray:1.000000,3.000000;stroke-dashoffset:0.0;stroke-linecap:butt;stroke-width:0.5;"/>
     </g>
     <g id="line2d_15">
      <g>
       <use style="stroke:#000000;stroke-linecap:butt;stroke-width:0.5;" x="391.362232143" xlink:href="#mcb557df647" y="350.1384375"/>
      </g>
     </g>
     <g id="line2d_16">
      <g>
       <use style="stroke:#000000;stroke-linecap:butt;stroke-width:0.5;" x="391.362232143" xlink:href="#mdad270ee8e" y="4.5384375"/>
      </g>
     </g>
     <g id="text_5">
      <!-- 355 -->
      <g transform="translate(380.891294643 363.0446875)scale(0.12 -0.12)">
       <use xlink:href="#BitstreamVeraSans-Roman-33"/>
       <use x="63.623046875" xlink:href="#BitstreamVeraSans-Roman-35"/>
       <use x="127.24609375" xlink:href="#BitstreamVeraSans-Roman-35"/>
      </g>
     </g>
    </g>
    <g id="xtick_6">
     <g id="line2d_17">
      <path clip-path="url(#p366f29e1c0)" d="
M471.077 350.138
L471.077 4.53844" style="fill:none;stroke:#000000;stroke-dasharray:1.000000,3.000000;stroke-dashoffset:0.0;stroke-linecap:butt;stroke-width:0.5;"/>
     </g>
     <g id="line2d_18">
      <g>
       <use style="stroke:#000000;stroke-linecap:butt;stroke-width:0.5;" x="471.076517857" xlink:href="#mcb557df647" y="350.1384375"/>
      </g>
     </g>
     <g id="line2d_19">
      <g>
       <use style="stroke:#000000;stroke-linecap:butt;stroke-width:0.5;" x="471.076517857" xlink:href="#mdad270ee8e" y="4.5384375"/>
      </g>
     </g>
     <g id="text_6">
      <!-- 360 -->
      <defs>
       <path d="
M33.0156 40.375
Q26.375 40.375 22.4844 35.8281
Q18.6094 31.2969 18.6094 23.3906
Q18.6094 15.5312 22.4844 10.9531
Q26.375 6.39062 33.0156 6.39062
Q39.6562 6.39062 43.5312 10.9531
Q47.4062 15.5312 47.4062 23.3906
Q47.4062 31.2969 43.5312 35.8281
Q39.6562 40.375 33.0156 40.375
M52.5938 71.2969
L52.5938 62.3125
Q48.875 64.0625 45.0938 64.9844
Q41.3125 65.9219 37.5938 65.9219
Q27.8281 65.9219 22.6719 59.3281
Q17.5312 52.7344 16.7969 39.4062
Q19.6719 43.6562 24.0156 45.9219
Q28.375 48.1875 33.5938 48.1875
Q44.5781 48.1875 50.9531 41.5156
Q57.3281 34.8594 57.3281 23.3906
Q57.3281 12.1562 50.6875 5.35938
Q44.0469 -1.42188 33.0156 -1.42188
Q20.3594 -1.42188 13.6719 8.26562
Q6.98438 17.9688 6.98438 36.375
Q6.98438 53.6562 15.1875 63.9375
Q23.3906 74.2188 37.2031 74.2188
Q40.9219 74.2188 44.7031 73.4844
Q48.4844 72.75 52.5938 71.2969" id="BitstreamVeraSans-Roman-36"/>
      </defs>
      <g transform="translate(460.479955357 363.0446875)scale(0.12 -0.12)">
       <use xlink:href="#BitstreamVeraSans-Roman-33"/>
       <use x="63.623046875" xlink:href="#BitstreamVeraSans-Roman-36"/>
       <use x="127.24609375" xlink:href="#BitstreamVeraSans-Roman-30"/>
      </g>
     </g>
    </g>
    <g id="text_7">
     <!-- Solvent electron density / nm$^{-3}$ -->
     <defs>
      <path d="
M9.51562 7.71875
Q11.8594 4.29688 15.8125 2.64062
Q19.7812 0.984375 24.3125 0.984375
Q30.125 0.984375 32.5625 5.9375
Q35.0156 10.8906 35.0156 17.1875
Q35.0156 20.0156 34.5 22.8438
Q33.9844 25.6875 32.7656 28.125
Q31.5469 30.5625 29.4219 32.0312
Q27.2969 33.5 24.2188 33.5
L17.5781 33.5
Q16.7031 33.5 16.7031 34.4219
L16.7031 35.2969
Q16.7031 36.0781 17.5781 36.0781
L23.0938 36.5312
Q26.6094 36.5312 28.9219 39.1562
Q31.25 41.7969 32.3281 45.5781
Q33.4062 49.3594 33.4062 52.7812
Q33.4062 57.5625 31.1562 60.6406
Q28.9062 63.7188 24.3125 63.7188
Q20.5156 63.7188 17.0469 62.2812
Q13.5781 60.8438 11.5312 57.9062
Q11.7188 57.9531 11.8594 57.9844
Q12.0156 58.0156 12.2031 58.0156
Q14.4531 58.0156 15.9688 56.4531
Q17.4844 54.8906 17.4844 52.6875
Q17.4844 50.5312 15.9688 48.9688
Q14.4531 47.4062 12.2031 47.4062
Q10.0156 47.4062 8.45312 48.9688
Q6.89062 50.5312 6.89062 52.6875
Q6.89062 56.9844 9.46875 60.1562
Q12.0625 63.3281 16.1406 64.9688
Q20.2188 66.6094 24.3125 66.6094
Q27.3438 66.6094 30.7031 65.7031
Q34.0781 64.7969 36.8125 63.1094
Q39.5469 61.4219 41.2812 58.7812
Q43.0156 56.1562 43.0156 52.7812
Q43.0156 48.5781 41.1406 45.0156
Q39.2656 41.4531 35.9844 38.8594
Q32.7188 36.2812 28.8125 35.0156
Q33.1562 34.1875 37.0625 31.7344
Q40.9688 29.2969 43.3281 25.4844
Q45.7031 21.6875 45.7031 17.2812
Q45.7031 11.7656 42.6719 7.29688
Q39.6562 2.82812 34.7188 0.3125
Q29.7812 -2.20312 24.3125 -2.20312
Q19.625 -2.20312 14.9062 -0.40625
Q10.2031 1.375 7.20312 4.9375
Q4.20312 8.5 4.20312 13.4844
Q4.20312 15.9688 5.85938 17.625
Q7.51562 19.2812 10.0156 19.2812
Q11.625 19.2812 12.9688 18.5312
Q14.3125 17.7812 15.0625 16.4062
Q15.8281 15.0469 15.8281 13.4844
Q15.8281 11.0312 14.1094 9.375
Q12.4062 7.71875 10.0156 7.71875
z
" id="Cmr10-33"/>
      <path id="BitstreamVeraSans-Roman-20"/>
      <path d="
M10.2031 23
Q9.375 23 8.82812 23.625
Q8.29688 24.2656 8.29688 25
Q8.29688 25.7344 8.82812 26.3594
Q9.375 27 10.2031 27
L67.5781 27
Q68.3594 27 68.875 26.3594
Q69.3906 25.7344 69.3906 25
Q69.3906 24.2656 68.875 23.625
Q68.3594 23 67.5781 23
z
" id="Cmsy10-a1"/>
      <path d="
M54.8906 33.0156
L54.8906 0
L45.9062 0
L45.9062 32.7188
Q45.9062 40.4844 42.875 44.3281
Q39.8438 48.1875 33.7969 48.1875
Q26.5156 48.1875 22.3125 43.5469
Q18.1094 38.9219 18.1094 30.9062
L18.1094 0
L9.07812 0
L9.07812 54.6875
L18.1094 54.6875
L18.1094 46.1875
Q21.3438 51.125 25.7031 53.5625
Q30.0781 56 35.7969 56
Q45.2188 56 50.0469 50.1719
Q54.8906 44.3438 54.8906 33.0156" id="BitstreamVeraSans-Roman-6e"/>
      <path d="
M52 44.1875
Q55.375 50.25 60.0625 53.125
Q64.75 56 71.0938 56
Q79.6406 56 84.2812 50.0156
Q88.9219 44.0469 88.9219 33.0156
L88.9219 0
L79.8906 0
L79.8906 32.7188
Q79.8906 40.5781 77.0938 44.375
Q74.3125 48.1875 68.6094 48.1875
Q61.625 48.1875 57.5625 43.5469
Q53.5156 38.9219 53.5156 30.9062
L53.5156 0
L44.4844 0
L44.4844 32.7188
Q44.4844 40.625 41.7031 44.4062
Q38.9219 48.1875 33.1094 48.1875
Q26.2188 48.1875 22.1562 43.5312
Q18.1094 38.875 18.1094 30.9062
L18.1094 0
L9.07812 0
L9.07812 54.6875
L18.1094 54.6875
L18.1094 46.1875
Q21.1875 51.2188 25.4844 53.6094
Q29.7812 56 35.6875 56
Q41.6562 56 45.8281 52.9688
Q50 49.9531 52 44.1875" id="BitstreamVeraSans-Roman-6d"/>
      <path d="
M30.6094 48.3906
Q23.3906 48.3906 19.1875 42.75
Q14.9844 37.1094 14.9844 27.2969
Q14.9844 17.4844 19.1562 11.8438
Q23.3438 6.20312 30.6094 6.20312
Q37.7969 6.20312 41.9844 11.8594
Q46.1875 17.5312 46.1875 27.2969
Q46.1875 37.0156 41.9844 42.7031
Q37.7969 48.3906 30.6094 48.3906
M30.6094 56
Q42.3281 56 49.0156 48.375
Q55.7188 40.7656 55.7188 27.2969
Q55.7188 13.875 49.0156 6.21875
Q42.3281 -1.42188 30.6094 -1.42188
Q18.8438 -1.42188 12.1719 6.21875
Q5.51562 13.875 5.51562 27.2969
Q5.51562 40.7656 12.1719 48.375
Q18.8438 56 30.6094 56" id="BitstreamVeraSans-Roman-6f"/>
      <path d="
M9.42188 75.9844
L18.4062 75.9844
L18.4062 0
L9.42188 0
z
" id="BitstreamVeraSans-Roman-6c"/>
      <path d="
M56.2031 29.5938
L56.2031 25.2031
L14.8906 25.2031
Q15.4844 15.9219 20.4844 11.0625
Q25.4844 6.20312 34.4219 6.20312
Q39.5938 6.20312 44.4531 7.46875
Q49.3125 8.73438 54.1094 11.2812
L54.1094 2.78125
Q49.2656 0.734375 44.1875 -0.34375
Q39.1094 -1.42188 33.8906 -1.42188
Q20.7969 -1.42188 13.1562 6.1875
Q5.51562 13.8125 5.51562 26.8125
Q5.51562 40.2344 12.7656 48.1094
Q20.0156 56 32.3281 56
Q43.3594 56 49.7812 48.8906
Q56.2031 41.7969 56.2031 29.5938
M47.2188 32.2344
Q47.125 39.5938 43.0938 43.9844
Q39.0625 48.3906 32.4219 48.3906
Q24.9062 48.3906 20.3906 44.1406
Q15.875 39.8906 15.1875 32.1719
z
" id="BitstreamVeraSans-Roman-65"/>
      <path d="
M53.5156 70.5156
L53.5156 60.8906
Q47.9062 63.5781 42.9219 64.8906
Q37.9375 66.2188 33.2969 66.2188
Q25.25 66.2188 20.875 63.0938
Q16.5 59.9688 16.5 54.2031
Q16.5 49.3594 19.4062 46.8906
Q22.3125 44.4375 30.4219 42.9219
L36.375 41.7031
Q47.4062 39.5938 52.6562 34.2969
Q57.9062 29 57.9062 20.125
Q57.9062 9.51562 50.7969 4.04688
Q43.7031 -1.42188 29.9844 -1.42188
Q24.8125 -1.42188 18.9688 -0.25
Q13.1406 0.921875 6.89062 3.21875
L6.89062 13.375
Q12.8906 10.0156 18.6562 8.29688
Q24.4219 6.59375 29.9844 6.59375
Q38.4219 6.59375 43.0156 9.90625
Q47.6094 13.2344 47.6094 19.3906
Q47.6094 24.75 44.3125 27.7812
Q41.0156 30.8125 33.5 32.3281
L27.4844 33.5
Q16.4531 35.6875 11.5156 40.375
Q6.59375 45.0625 6.59375 53.4219
Q6.59375 63.0938 13.4062 68.6562
Q20.2188 74.2188 32.1719 74.2188
Q37.3125 74.2188 42.625 73.2812
Q47.9531 72.3594 53.5156 70.5156" id="BitstreamVeraSans-Roman-53"/>
      <path d="
M9.42188 54.6875
L18.4062 54.6875
L18.4062 0
L9.42188 0
z

M9.42188 75.9844
L18.4062 75.9844
L18.4062 64.5938
L9.42188 64.5938
z
" id="BitstreamVeraSans-Roman-69"/>
      <path d="
M32.1719 -5.07812
Q28.375 -14.8438 24.75 -17.8125
Q21.1406 -20.7969 15.0938 -20.7969
L7.90625 -20.7969
L7.90625 -13.2812
L13.1875 -13.2812
Q16.8906 -13.2812 18.9375 -11.5156
Q21 -9.76562 23.4844 -3.21875
L25.0938 0.875
L2.98438 54.6875
L12.5 54.6875
L29.5938 11.9219
L46.6875 54.6875
L56.2031 54.6875
z
" id="BitstreamVeraSans-Roman-79"/>
      <path d="
M2.98438 54.6875
L12.5 54.6875
L29.5938 8.79688
L46.6875 54.6875
L56.2031 54.6875
L35.6875 0
L23.4844 0
z
" id="BitstreamVeraSans-Roman-76"/>
      <path d="
M45.4062 46.3906
L45.4062 75.9844
L54.3906 75.9844
L54.3906 0
L45.4062 0
L45.4062 8.20312
Q42.5781 3.32812 38.25 0.953125
Q33.9375 -1.42188 27.875 -1.42188
Q17.9688 -1.42188 11.7344 6.48438
Q5.51562 14.4062 5.51562 27.2969
Q5.51562 40.1875 11.7344 48.0938
Q17.9688 56 27.875 56
Q33.9375 56 38.25 53.625
Q42.5781 51.2656 45.4062 46.3906
M14.7969 27.2969
Q14.7969 17.3906 18.875 11.75
Q22.9531 6.10938 30.0781 6.10938
Q37.2031 6.10938 41.2969 11.75
Q45.4062 17.3906 45.4062 27.2969
Q45.4062 37.2031 41.2969 42.8438
Q37.2031 48.4844 30.0781 48.4844
Q22.9531 48.4844 18.875 42.8438
Q14.7969 37.2031 14.7969 27.2969" id="BitstreamVeraSans-Roman-64"/>
      <path d="
M18.3125 70.2188
L18.3125 54.6875
L36.8125 54.6875
L36.8125 47.7031
L18.3125 47.7031
L18.3125 18.0156
Q18.3125 11.3281 20.1406 9.42188
Q21.9688 7.51562 27.5938 7.51562
L36.8125 7.51562
L36.8125 0
L27.5938 0
Q17.1875 0 13.2344 3.875
Q9.28125 7.76562 9.28125 18.0156
L9.28125 47.7031
L2.6875 47.7031
L2.6875 54.6875
L9.28125 54.6875
L9.28125 70.2188
z
" id="BitstreamVeraSans-Roman-74"/>
      <path d="
M25.3906 72.9062
L33.6875 72.9062
L8.29688 -9.28125
L0 -9.28125
z
" id="BitstreamVeraSans-Roman-2f"/>
      <path d="
M41.1094 46.2969
Q39.5938 47.1719 37.8125 47.5781
Q36.0312 48 33.8906 48
Q26.2656 48 22.1875 43.0469
Q18.1094 38.0938 18.1094 28.8125
L18.1094 0
L9.07812 0
L9.07812 54.6875
L18.1094 54.6875
L18.1094 46.1875
Q20.9531 51.1719 25.4844 53.5781
Q30.0312 56 36.5312 56
Q37.4531 56 38.5781 55.875
Q39.7031 55.7656 41.0625 55.5156
z
" id="BitstreamVeraSans-Roman-72"/>
      <path d="
M44.2812 53.0781
L44.2812 44.5781
Q40.4844 46.5312 36.375 47.5
Q32.2812 48.4844 27.875 48.4844
Q21.1875 48.4844 17.8438 46.4375
Q14.5 44.3906 14.5 40.2812
Q14.5 37.1562 16.8906 35.375
Q19.2812 33.5938 26.5156 31.9844
L29.5938 31.2969
Q39.1562 29.25 43.1875 25.5156
Q47.2188 21.7812 47.2188 15.0938
Q47.2188 7.46875 41.1875 3.01562
Q35.1562 -1.42188 24.6094 -1.42188
Q20.2188 -1.42188 15.4531 -0.5625
Q10.6875 0.296875 5.42188 2
L5.42188 11.2812
Q10.4062 8.6875 15.2344 7.39062
Q20.0625 6.10938 24.8125 6.10938
Q31.1562 6.10938 34.5625 8.28125
Q37.9844 10.4531 37.9844 14.4062
Q37.9844 18.0625 35.5156 20.0156
Q33.0625 21.9688 24.7031 23.7812
L21.5781 24.5156
Q13.2344 26.2656 9.51562 29.9062
Q5.8125 33.5469 5.8125 39.8906
Q5.8125 47.6094 11.2812 51.7969
Q16.75 56 26.8125 56
Q31.7812 56 36.1719 55.2656
Q40.5781 54.5469 44.2812 53.0781" id="BitstreamVeraSans-Roman-73"/>
      <path d="
M48.7812 52.5938
L48.7812 44.1875
Q44.9688 46.2969 41.1406 47.3438
Q37.3125 48.3906 33.4062 48.3906
Q24.6562 48.3906 19.8125 42.8438
Q14.9844 37.3125 14.9844 27.2969
Q14.9844 17.2812 19.8125 11.7344
Q24.6562 6.20312 33.4062 6.20312
Q37.3125 6.20312 41.1406 7.25
Q44.9688 8.29688 48.7812 10.4062
L48.7812 2.09375
Q45.0156 0.34375 40.9844 -0.53125
Q36.9688 -1.42188 32.4219 -1.42188
Q20.0625 -1.42188 12.7812 6.34375
Q5.51562 14.1094 5.51562 27.2969
Q5.51562 40.6719 12.8594 48.3281
Q20.2188 56 33.0156 56
Q37.1562 56 41.1094 55.1406
Q45.0625 54.2969 48.7812 52.5938" id="BitstreamVeraSans-Roman-63"/>
     </defs>
     <g transform="translate(153.079375 383.7553125)scale(0.14 -0.14)">
      <use transform="translate(0.0 21.8578125)" xlink:href="#BitstreamVeraSans-Roman-53"/>
      <use transform="translate(63.4765625 21.8578125)" xlink:href="#BitstreamVeraSans-Roman-6f"/>
      <use transform="translate(124.658203125 21.8578125)" xlink:href="#BitstreamVeraSans-Roman-6c"/>
      <use transform="translate(152.44140625 21.8578125)" xlink:href="#BitstreamVeraSans-Roman-76"/>
      <use transform="translate(211.62109375 21.8578125)" xlink:href="#BitstreamVeraSans-Roman-65"/>
      <use transform="translate(273.14453125 21.8578125)" xlink:href="#BitstreamVeraSans-Roman-6e"/>
      <use transform="translate(336.5234375 21.8578125)" xlink:href="#BitstreamVeraSans-Roman-74"/>
      <use transform="translate(375.732421875 21.8578125)" xlink:href="#BitstreamVeraSans-Roman-20"/>
      <use transform="translate(407.51953125 21.8578125)" xlink:href="#BitstreamVeraSans-Roman-65"/>
      <use transform="translate(469.04296875 21.8578125)" xlink:href="#BitstreamVeraSans-Roman-6c"/>
      <use transform="translate(496.826171875 21.8578125)" xlink:href="#BitstreamVeraSans-Roman-65"/>
      <use transform="translate(558.349609375 21.8578125)" xlink:href="#BitstreamVeraSans-Roman-63"/>
      <use transform="translate(613.330078125 21.8578125)" xlink:href="#BitstreamVeraSans-Roman-74"/>
      <use transform="translate(652.5390625 21.8578125)" xlink:href="#BitstreamVeraSans-Roman-72"/>
      <use transform="translate(693.65234375 21.8578125)" xlink:href="#BitstreamVeraSans-Roman-6f"/>
      <use transform="translate(754.833984375 21.8578125)" xlink:href="#BitstreamVeraSans-Roman-6e"/>
      <use transform="translate(818.212890625 21.8578125)" xlink:href="#BitstreamVeraSans-Roman-20"/>
      <use transform="translate(850.0 21.8578125)" xlink:href="#BitstreamVeraSans-Roman-64"/>
      <use transform="translate(913.4765625 21.8578125)" xlink:href="#BitstreamVeraSans-Roman-65"/>
      <use transform="translate(975.0 21.8578125)" xlink:href="#BitstreamVeraSans-Roman-6e"/>
      <use transform="translate(1038.37890625 21.8578125)" xlink:href="#BitstreamVeraSans-Roman-73"/>
      <use transform="translate(1090.47851562 21.8578125)" xlink:href="#BitstreamVeraSans-Roman-69"/>
      <use transform="translate(1118.26171875 21.8578125)" xlink:href="#BitstreamVeraSans-Roman-74"/>
      <use transform="translate(1157.47070312 21.8578125)" xlink:href="#BitstreamVeraSans-Roman-79"/>
      <use transform="translate(1216.65039062 21.8578125)" xlink:href="#BitstreamVeraSans-Roman-20"/>
      <use transform="translate(1248.4375 21.8578125)" xlink:href="#BitstreamVeraSans-Roman-2f"/>
      <use transform="translate(1282.12890625 21.8578125)" xlink:href="#BitstreamVeraSans-Roman-20"/>
      <use transform="translate(1313.91601562 21.8578125)" xlink:href="#BitstreamVeraSans-Roman-6e"/>
      <use transform="translate(1377.29492188 21.8578125)" xlink:href="#BitstreamVeraSans-Roman-6d"/>
      <use transform="translate(1474.70703125 64.3734375)scale(0.7)" xlink:href="#Cmsy10-a1"/>
      <use transform="translate(1529.08691406 64.3734375)scale(0.7)" xlink:href="#Cmr10-33"/>
     </g>
    </g>
   </g>
   <g id="matplotlib.axis_2">
    <g id="ytick_1">
     <g id="line2d_20">
      <path clip-path="url(#p366f29e1c0)" d="
M40.6194 329.809
L487.019 329.809" style="fill:none;stroke:#000000;stroke-dasharray:1.000000,3.000000;stroke-dashoffset:0.0;stroke-linecap:butt;stroke-width:0.5;"/>
     </g>
     <g id="line2d_21">
      <defs>
       <path d="
M0 0
L4 0" id="mc8fcea1516" style="stroke:#000000;stroke-linecap:butt;stroke-width:0.5;"/>
      </defs>
      <g>
       <use style="stroke:#000000;stroke-linecap:butt;stroke-width:0.5;" x="40.619375" xlink:href="#mc8fcea1516" y="329.809025735"/>
      </g>
     </g>
     <g id="line2d_22">
      <defs>
       <path d="
M0 0
L-4 0" id="m0d5b0a6425" style="stroke:#000000;stroke-linecap:butt;stroke-width:0.5;"/>
      </defs>
      <g>
       <use style="stroke:#000000;stroke-linecap:butt;stroke-width:0.5;" x="487.019375" xlink:href="#m0d5b0a6425" y="329.809025735"/>
      </g>
     </g>
     <g id="text_8">
      <!-- 0.0 -->
      <defs>
       <path d="
M10.6875 12.4062
L21 12.4062
L21 0
L10.6875 0
z
" id="BitstreamVeraSans-Roman-2e"/>
      </defs>
      <g transform="translate(19.12375 334.176838235)scale(0.12 -0.12)">
       <use xlink:href="#BitstreamVeraSans-Roman-30"/>
       <use x="63.623046875" xlink:href="#BitstreamVeraSans-Roman-2e"/>
       <use x="95.41015625" xlink:href="#BitstreamVeraSans-Roman-30"/>
      </g>
     </g>
    </g>
    <g id="ytick_2">
     <g id="line2d_23">
      <path clip-path="url(#p366f29e1c0)" d="
M40.6194 289.15
L487.019 289.15" style="fill:none;stroke:#000000;stroke-dasharray:1.000000,3.000000;stroke-dashoffset:0.0;stroke-linecap:butt;stroke-width:0.5;"/>
     </g>
     <g id="line2d_24">
      <g>
       <use style="stroke:#000000;stroke-linecap:butt;stroke-width:0.5;" x="40.619375" xlink:href="#mc8fcea1516" y="289.150202206"/>
      </g>
     </g>
     <g id="line2d_25">
      <g>
       <use style="stroke:#000000;stroke-linecap:butt;stroke-width:0.5;" x="487.019375" xlink:href="#m0d5b0a6425" y="289.150202206"/>
      </g>
     </g>
     <g id="text_9">
      <!-- 0.2 -->
      <defs>
       <path d="
M19.1875 8.29688
L53.6094 8.29688
L53.6094 0
L7.32812 0
L7.32812 8.29688
Q12.9375 14.1094 22.625 23.8906
Q32.3281 33.6875 34.8125 36.5312
Q39.5469 41.8438 41.4219 45.5312
Q43.3125 49.2188 43.3125 52.7812
Q43.3125 58.5938 39.2344 62.25
Q35.1562 65.9219 28.6094 65.9219
Q23.9688 65.9219 18.8125 64.3125
Q13.6719 62.7031 7.8125 59.4219
L7.8125 69.3906
Q13.7656 71.7812 18.9375 73
Q24.125 74.2188 28.4219 74.2188
Q39.75 74.2188 46.4844 68.5469
Q53.2188 62.8906 53.2188 53.4219
Q53.2188 48.9219 51.5312 44.8906
Q49.8594 40.875 45.4062 35.4062
Q44.1875 33.9844 37.6406 27.2188
Q31.1094 20.4531 19.1875 8.29688" id="BitstreamVeraSans-Roman-32"/>
      </defs>
      <g transform="translate(19.52875 293.518014706)scale(0.12 -0.12)">
       <use xlink:href="#BitstreamVeraSans-Roman-30"/>
       <use x="63.623046875" xlink:href="#BitstreamVeraSans-Roman-2e"/>
       <use x="95.41015625" xlink:href="#BitstreamVeraSans-Roman-32"/>
      </g>
     </g>
    </g>
    <g id="ytick_3">
     <g id="line2d_26">
      <path clip-path="url(#p366f29e1c0)" d="
M40.6194 248.491
L487.019 248.491" style="fill:none;stroke:#000000;stroke-dasharray:1.000000,3.000000;stroke-dashoffset:0.0;stroke-linecap:butt;stroke-width:0.5;"/>
     </g>
     <g id="line2d_27">
      <g>
       <use style="stroke:#000000;stroke-linecap:butt;stroke-width:0.5;" x="40.619375" xlink:href="#mc8fcea1516" y="248.491378676"/>
      </g>
     </g>
     <g id="line2d_28">
      <g>
       <use style="stroke:#000000;stroke-linecap:butt;stroke-width:0.5;" x="487.019375" xlink:href="#m0d5b0a6425" y="248.491378676"/>
      </g>
     </g>
     <g id="text_10">
      <!-- 0.4 -->
      <g transform="translate(19.0 252.859191176)scale(0.12 -0.12)">
       <use xlink:href="#BitstreamVeraSans-Roman-30"/>
       <use x="63.623046875" xlink:href="#BitstreamVeraSans-Roman-2e"/>
       <use x="95.41015625" xlink:href="#BitstreamVeraSans-Roman-34"/>
      </g>
     </g>
    </g>
    <g id="ytick_4">
     <g id="line2d_29">
      <path clip-path="url(#p366f29e1c0)" d="
M40.6194 207.833
L487.019 207.833" style="fill:none;stroke:#000000;stroke-dasharray:1.000000,3.000000;stroke-dashoffset:0.0;stroke-linecap:butt;stroke-width:0.5;"/>
     </g>
     <g id="line2d_30">
      <g>
       <use style="stroke:#000000;stroke-linecap:butt;stroke-width:0.5;" x="40.619375" xlink:href="#mc8fcea1516" y="207.832555147"/>
      </g>
     </g>
     <g id="line2d_31">
      <g>
       <use style="stroke:#000000;stroke-linecap:butt;stroke-width:0.5;" x="487.019375" xlink:href="#m0d5b0a6425" y="207.832555147"/>
      </g>
     </g>
     <g id="text_11">
      <!-- 0.6 -->
      <g transform="translate(19.0825 212.200367647)scale(0.12 -0.12)">
       <use xlink:href="#BitstreamVeraSans-Roman-30"/>
       <use x="63.623046875" xlink:href="#BitstreamVeraSans-Roman-2e"/>
       <use x="95.41015625" xlink:href="#BitstreamVeraSans-Roman-36"/>
      </g>
     </g>
    </g>
    <g id="ytick_5">
     <g id="line2d_32">
      <path clip-path="url(#p366f29e1c0)" d="
M40.6194 167.174
L487.019 167.174" style="fill:none;stroke:#000000;stroke-dasharray:1.000000,3.000000;stroke-dashoffset:0.0;stroke-linecap:butt;stroke-width:0.5;"/>
     </g>
     <g id="line2d_33">
      <g>
       <use style="stroke:#000000;stroke-linecap:butt;stroke-width:0.5;" x="40.619375" xlink:href="#mc8fcea1516" y="167.173731618"/>
      </g>
     </g>
     <g id="line2d_34">
      <g>
       <use style="stroke:#000000;stroke-linecap:butt;stroke-width:0.5;" x="487.019375" xlink:href="#m0d5b0a6425" y="167.173731618"/>
      </g>
     </g>
     <g id="text_12">
      <!-- 0.8 -->
      <defs>
       <path d="
M31.7812 34.625
Q24.75 34.625 20.7188 30.8594
Q16.7031 27.0938 16.7031 20.5156
Q16.7031 13.9219 20.7188 10.1562
Q24.75 6.39062 31.7812 6.39062
Q38.8125 6.39062 42.8594 10.1719
Q46.9219 13.9688 46.9219 20.5156
Q46.9219 27.0938 42.8906 30.8594
Q38.875 34.625 31.7812 34.625
M21.9219 38.8125
Q15.5781 40.375 12.0312 44.7188
Q8.5 49.0781 8.5 55.3281
Q8.5 64.0625 14.7188 69.1406
Q20.9531 74.2188 31.7812 74.2188
Q42.6719 74.2188 48.875 69.1406
Q55.0781 64.0625 55.0781 55.3281
Q55.0781 49.0781 51.5312 44.7188
Q48 40.375 41.7031 38.8125
Q48.8281 37.1562 52.7969 32.3125
Q56.7812 27.4844 56.7812 20.5156
Q56.7812 9.90625 50.3125 4.23438
Q43.8438 -1.42188 31.7812 -1.42188
Q19.7344 -1.42188 13.25 4.23438
Q6.78125 9.90625 6.78125 20.5156
Q6.78125 27.4844 10.7812 32.3125
Q14.7969 37.1562 21.9219 38.8125
M18.3125 54.3906
Q18.3125 48.7344 21.8438 45.5625
Q25.3906 42.3906 31.7812 42.3906
Q38.1406 42.3906 41.7188 45.5625
Q45.3125 48.7344 45.3125 54.3906
Q45.3125 60.0625 41.7188 63.2344
Q38.1406 66.4062 31.7812 66.4062
Q25.3906 66.4062 21.8438 63.2344
Q18.3125 60.0625 18.3125 54.3906" id="BitstreamVeraSans-Roman-38"/>
      </defs>
      <g transform="translate(19.148125 171.541544118)scale(0.12 -0.12)">
       <use xlink:href="#BitstreamVeraSans-Roman-30"/>
       <use x="63.623046875" xlink:href="#BitstreamVeraSans-Roman-2e"/>
       <use x="95.41015625" xlink:href="#BitstreamVeraSans-Roman-38"/>
      </g>
     </g>
    </g>
    <g id="ytick_6">
     <g id="line2d_35">
      <path clip-path="url(#p366f29e1c0)" d="
M40.6194 126.515
L487.019 126.515" style="fill:none;stroke:#000000;stroke-dasharray:1.000000,3.000000;stroke-dashoffset:0.0;stroke-linecap:butt;stroke-width:0.5;"/>
     </g>
     <g id="line2d_36">
      <g>
       <use style="stroke:#000000;stroke-linecap:butt;stroke-width:0.5;" x="40.619375" xlink:href="#mc8fcea1516" y="126.514908088"/>
      </g>
     </g>
     <g id="line2d_37">
      <g>
       <use style="stroke:#000000;stroke-linecap:butt;stroke-width:0.5;" x="487.019375" xlink:href="#m0d5b0a6425" y="126.514908088"/>
      </g>
     </g>
     <g id="text_13">
      <!-- 1.0 -->
      <defs>
       <path d="
M12.4062 8.29688
L28.5156 8.29688
L28.5156 63.9219
L10.9844 60.4062
L10.9844 69.3906
L28.4219 72.9062
L38.2812 72.9062
L38.2812 8.29688
L54.3906 8.29688
L54.3906 0
L12.4062 0
z
" id="BitstreamVeraSans-Roman-31"/>
      </defs>
      <g transform="translate(19.650625 130.882720588)scale(0.12 -0.12)">
       <use xlink:href="#BitstreamVeraSans-Roman-31"/>
       <use x="63.623046875" xlink:href="#BitstreamVeraSans-Roman-2e"/>
       <use x="95.41015625" xlink:href="#BitstreamVeraSans-Roman-30"/>
      </g>
     </g>
    </g>
    <g id="ytick_7">
     <g id="line2d_38">
      <path clip-path="url(#p366f29e1c0)" d="
M40.6194 85.8561
L487.019 85.8561" style="fill:none;stroke:#000000;stroke-dasharray:1.000000,3.000000;stroke-dashoffset:0.0;stroke-linecap:butt;stroke-width:0.5;"/>
     </g>
     <g id="line2d_39">
      <g>
       <use style="stroke:#000000;stroke-linecap:butt;stroke-width:0.5;" x="40.619375" xlink:href="#mc8fcea1516" y="85.8560845588"/>
      </g>
     </g>
     <g id="line2d_40">
      <g>
       <use style="stroke:#000000;stroke-linecap:butt;stroke-width:0.5;" x="487.019375" xlink:href="#m0d5b0a6425" y="85.8560845588"/>
      </g>
     </g>
     <g id="text_14">
      <!-- 1.2 -->
      <g transform="translate(20.055625 90.3092095588)scale(0.12 -0.12)">
       <use xlink:href="#BitstreamVeraSans-Roman-31"/>
       <use x="63.623046875" xlink:href="#BitstreamVeraSans-Roman-2e"/>
       <use x="95.41015625" xlink:href="#BitstreamVeraSans-Roman-32"/>
      </g>
     </g>
    </g>
    <g id="ytick_8">
     <g id="line2d_41">
      <path clip-path="url(#p366f29e1c0)" d="
M40.6194 45.1973
L487.019 45.1973" style="fill:none;stroke:#000000;stroke-dasharray:1.000000,3.000000;stroke-dashoffset:0.0;stroke-linecap:butt;stroke-width:0.5;"/>
     </g>
     <g id="line2d_42">
      <g>
       <use style="stroke:#000000;stroke-linecap:butt;stroke-width:0.5;" x="40.619375" xlink:href="#mc8fcea1516" y="45.1972610294"/>
      </g>
     </g>
     <g id="line2d_43">
      <g>
       <use style="stroke:#000000;stroke-linecap:butt;stroke-width:0.5;" x="487.019375" xlink:href="#m0d5b0a6425" y="45.1972610294"/>
      </g>
     </g>
     <g id="text_15">
      <!-- 1.4 -->
      <g transform="translate(19.526875 49.5716360294)scale(0.12 -0.12)">
       <use xlink:href="#BitstreamVeraSans-Roman-31"/>
       <use x="63.623046875" xlink:href="#BitstreamVeraSans-Roman-2e"/>
       <use x="95.41015625" xlink:href="#BitstreamVeraSans-Roman-34"/>
      </g>
     </g>
    </g>
    <g id="ytick_9">
     <g id="line2d_44">
      <path clip-path="url(#p366f29e1c0)" d="
M40.6194 4.53844
L487.019 4.53844" style="fill:none;stroke:#000000;stroke-dasharray:1.000000,3.000000;stroke-dashoffset:0.0;stroke-linecap:butt;stroke-width:0.5;"/>
     </g>
     <g id="line2d_45">
      <g>
       <use style="stroke:#000000;stroke-linecap:butt;stroke-width:0.5;" x="40.619375" xlink:href="#mc8fcea1516" y="4.5384375"/>
      </g>
     </g>
     <g id="line2d_46">
      <g>
       <use style="stroke:#000000;stroke-linecap:butt;stroke-width:0.5;" x="487.019375" xlink:href="#m0d5b0a6425" y="4.5384375"/>
      </g>
     </g>
     <g id="text_16">
      <!-- 1.6 -->
      <g transform="translate(19.609375 8.90625)scale(0.12 -0.12)">
       <use xlink:href="#BitstreamVeraSans-Roman-31"/>
       <use x="63.623046875" xlink:href="#BitstreamVeraSans-Roman-2e"/>
       <use x="95.41015625" xlink:href="#BitstreamVeraSans-Roman-36"/>
      </g>
     </g>
    </g>
    <g id="text_17">
     <!-- $I(0)$ / a.u. -->
     <defs>
      <path d="
M25 -2.20312
Q12.75 -2.20312 8.32812 7.875
Q3.90625 17.9688 3.90625 31.8906
Q3.90625 40.5781 5.48438 48.2344
Q7.07812 55.9062 11.7812 61.25
Q16.5 66.6094 25 66.6094
Q31.5938 66.6094 35.7812 63.375
Q39.9844 60.1562 42.1875 55.0469
Q44.3906 49.9531 45.1875 44.1094
Q46 38.2812 46 31.8906
Q46 23.2969 44.4062 15.7969
Q42.8281 8.29688 38.1875 3.04688
Q33.5469 -2.20312 25 -2.20312
M25 0.390625
Q30.5625 0.390625 33.2969 6.09375
Q36.0312 11.8125 36.6719 18.75
Q37.3125 25.6875 37.3125 33.5
Q37.3125 41.0156 36.6719 47.3594
Q36.0312 53.7188 33.3125 58.8594
Q30.6094 64.0156 25 64.0156
Q19.3438 64.0156 16.6094 58.8281
Q13.875 53.6562 13.2344 47.3281
Q12.5938 41.0156 12.5938 33.5
Q12.5938 27.9375 12.8594 23
Q13.1406 18.0625 14.3125 12.8125
Q15.4844 7.5625 18.0938 3.96875
Q20.7031 0.390625 25 0.390625" id="Cmr10-30"/>
      <path d="
M31 -24.8125
Q25.4375 -20.4062 21.4062 -14.7188
Q17.3906 -9.03125 14.8125 -2.57812
Q12.25 3.85938 10.9844 10.8906
Q9.71875 17.9219 9.71875 25
Q9.71875 32.1719 10.9844 39.2031
Q12.25 46.2344 14.8594 52.7344
Q17.4844 59.2344 21.5312 64.8906
Q25.5938 70.5625 31 74.8125
Q31 75 31.5 75
L32.4219 75
Q32.7188 75 32.9531 74.7344
Q33.2031 74.4688 33.2031 74.125
Q33.2031 73.6875 33.0156 73.4844
Q28.125 68.7031 24.875 63.2344
Q21.625 57.7656 19.6406 51.5781
Q17.6719 45.4062 16.7969 38.7812
Q15.9219 32.1719 15.9219 25
Q15.9219 -6.78125 32.9062 -23.2969
Q33.2031 -23.5781 33.2031 -24.125
Q33.2031 -24.3594 32.9375 -24.6719
Q32.6719 -25 32.4219 -25
L31.5 -25
Q31 -25 31 -24.8125" id="Cmr10-28"/>
      <path d="
M6.5 -25
Q5.60938 -25 5.60938 -24.125
Q5.60938 -23.6875 5.8125 -23.4844
Q22.9062 -6.78125 22.9062 25
Q22.9062 56.7812 6 73.2969
Q5.60938 73.5312 5.60938 74.125
Q5.60938 74.4688 5.875 74.7344
Q6.15625 75 6.5 75
L7.42188 75
Q7.71875 75 7.90625 74.8125
Q15.0938 69.1406 19.875 61.0312
Q24.6562 52.9375 26.875 43.75
Q29.1094 34.5781 29.1094 25
Q29.1094 17.9219 27.9062 11.0625
Q26.7031 4.20312 24.0938 -2.45312
Q21.4844 -9.125 17.4844 -14.7656
Q13.4844 -20.4062 7.90625 -24.8125
Q7.71875 -25 7.42188 -25
z
" id="Cmr10-29"/>
      <path d="
M8.5 21.5781
L8.5 54.6875
L17.4844 54.6875
L17.4844 21.9219
Q17.4844 14.1562 20.5 10.2656
Q23.5312 6.39062 29.5938 6.39062
Q36.8594 6.39062 41.0781 11.0312
Q45.3125 15.6719 45.3125 23.6875
L45.3125 54.6875
L54.2969 54.6875
L54.2969 0
L45.3125 0
L45.3125 8.40625
Q42.0469 3.42188 37.7188 1
Q33.4062 -1.42188 27.6875 -1.42188
Q18.2656 -1.42188 13.375 4.4375
Q8.5 10.2969 8.5 21.5781" id="BitstreamVeraSans-Roman-75"/>
      <path d="
M34.2812 27.4844
Q23.3906 27.4844 19.1875 25
Q14.9844 22.5156 14.9844 16.5
Q14.9844 11.7188 18.1406 8.90625
Q21.2969 6.10938 26.7031 6.10938
Q34.1875 6.10938 38.7031 11.4062
Q43.2188 16.7031 43.2188 25.4844
L43.2188 27.4844
z

M52.2031 31.2031
L52.2031 0
L43.2188 0
L43.2188 8.29688
Q40.1406 3.32812 35.5469 0.953125
Q30.9531 -1.42188 24.3125 -1.42188
Q15.9219 -1.42188 10.9531 3.29688
Q6 8.01562 6 15.9219
Q6 25.1406 12.1719 29.8281
Q18.3594 34.5156 30.6094 34.5156
L43.2188 34.5156
L43.2188 35.4062
Q43.2188 41.6094 39.1406 45
Q35.0625 48.3906 27.6875 48.3906
Q23 48.3906 18.5469 47.2656
Q14.1094 46.1406 10.0156 43.8906
L10.0156 52.2031
Q14.9375 54.1094 19.5781 55.0469
Q24.2188 56 28.6094 56
Q40.4844 56 46.3438 49.8438
Q52.2031 43.7031 52.2031 31.2031" id="BitstreamVeraSans-Roman-61"/>
      <path d="
M4.20312 0
Q3.21875 0 3.21875 1.3125
Q3.60938 3.51562 4.5 3.51562
Q10.4062 3.51562 12.5 3.90625
Q14.7969 4.4375 15.375 6.89062
L29.1094 61.8125
Q29.2969 62.7969 29.2969 63.0938
Q29.2969 63.7188 28.9688 63.9844
Q28.6562 64.2656 27.9844 64.4062
Q25.9844 64.7969 20.4062 64.7969
Q19.3906 64.7969 19.3906 66.1094
Q19.7344 67.3906 19.9219 67.8438
Q20.125 68.3125 21.0938 68.3125
L49.0312 68.3125
Q50 68.3125 50 67
Q49.9531 66.75 49.7969 66.1562
Q49.6562 65.5781 49.4062 65.1875
Q49.1719 64.7969 48.6875 64.7969
Q42.8281 64.7969 40.5781 64.4062
Q38.375 63.875 37.7969 61.375
L24.125 6.5
Q23.875 5.28125 23.875 5.17188
Q23.875 4.9375 23.9531 4.71875
Q24.0312 4.5 24.25 4.32812
Q24.4688 4.15625 24.6875 4.07812
Q24.9062 4 25.2031 3.90625
Q27.0938 3.51562 32.8125 3.51562
Q33.7969 3.51562 33.7969 2.20312
Q33.4531 0.78125 33.25 0.390625
Q33.0625 0 32.0781 0
z
" id="Cmmi10-49"/>
     </defs>
     <g transform="translate(14.0 209.3984375)rotate(-90.0)scale(0.14 -0.14)">
      <use transform="translate(0.0 25.0)" xlink:href="#Cmmi10-49"/>
      <use transform="translate(43.896484375 25.0)" xlink:href="#Cmr10-28"/>
      <use transform="translate(82.71484375 25.0)" xlink:href="#Cmr10-30"/>
      <use transform="translate(132.71484375 25.0)" xlink:href="#Cmr10-29"/>
      <use transform="translate(171.533203125 25.0)" xlink:href="#BitstreamVeraSans-Roman-20"/>
      <use transform="translate(203.3203125 25.0)" xlink:href="#BitstreamVeraSans-Roman-2f"/>
      <use transform="translate(237.01171875 25.0)" xlink:href="#BitstreamVeraSans-Roman-20"/>
      <use transform="translate(268.798828125 25.0)" xlink:href="#BitstreamVeraSans-Roman-61"/>
      <use transform="translate(330.078125 25.0)" xlink:href="#BitstreamVeraSans-Roman-2e"/>
      <use transform="translate(361.865234375 25.0)" xlink:href="#BitstreamVeraSans-Roman-75"/>
      <use transform="translate(425.244140625 25.0)" xlink:href="#BitstreamVeraSans-Roman-2e"/>
     </g>
    </g>
   </g>
   <g id="patch_3">
    <path d="
M40.6194 4.53844
L487.019 4.53844" style="fill:none;stroke:#000000;"/>
   </g>
   <g id="patch_4">
    <path d="
M487.019 350.138
L487.019 4.53844" style="fill:none;stroke:#000000;"/>
   </g>
   <g id="patch_5">
    <path d="
M40.6194 350.138
L487.019 350.138" style="fill:none;stroke:#000000;"/>
   </g>
   <g id="patch_6">
    <path d="
M40.6194 350.138
L40.6194 4.53844" style="fill:none;stroke:#000000;"/>
   </g>
  </g>
 </g>
 <defs>
  <clipPath id="p366f29e1c0">
   <rect height="345.6" width="446.4" x="40.619375" y="4.5384375"/>
  </clipPath>
 </defs>
</svg>
