<?xml version="1.0" encoding="utf-8" standalone="no"?>
<!DOCTYPE svg PUBLIC "-//W3C//DTD SVG 1.1//EN"
  "http://www.w3.org/Graphics/SVG/1.1/DTD/svg11.dtd">
<!-- Created with matplotlib (http://matplotlib.org/) -->
<svg height="379pt" version="1.1" viewBox="0 0 502 379" width="502pt" xmlns="http://www.w3.org/2000/svg" xmlns:xlink="http://www.w3.org/1999/xlink">
 <defs>
  <style type="text/css">
*{stroke-linecap:square;stroke-linejoin:round;}
  </style>
 </defs>
 <g id="figure_1">
  <g id="patch_1">
   <path d="
M0 379.217
L502.464 379.217
L502.464 0
L0 0
z
" style="fill:none;opacity:0.0;"/>
  </g>
  <g id="axes_1">
   <g id="patch_2">
    <path d="
M56.0638 345.6
L502.464 345.6
L502.464 -5.68434e-14
L56.0638 -5.68434e-14
z
" style="fill:none;opacity:0.0;"/>
   </g>
   <g id="PathCollection_1">
    <defs>
     <path d="
M-2.48253e-16 3.16228
L3.16228 0
L2.48253e-16 -3.16228
L-3.16228 -4.96507e-16
z
" id="C0_0_dea3496d8a"/>
    </defs>
    <g clip-path="url(#pd0d3e9b4e7)">
     <use style="fill:#ff0000;stroke:#ff0000;stroke-linecap:butt;stroke-width:2.0;" x="107.925498475" xlink:href="#C0_0_dea3496d8a" y="174.059376971"/>
    </g>
    <g clip-path="url(#pd0d3e9b4e7)">
     <use style="fill:#ff0000;stroke:#ff0000;stroke-linecap:butt;stroke-width:2.0;" x="108.314461589" xlink:href="#C0_0_dea3496d8a" y="166.73807042"/>
    </g>
    <g clip-path="url(#pd0d3e9b4e7)">
     <use style="fill:#ff0000;stroke:#ff0000;stroke-linecap:butt;stroke-width:2.0;" x="112.204092724" xlink:href="#C0_0_dea3496d8a" y="162.691401196"/>
    </g>
    <g clip-path="url(#pd0d3e9b4e7)">
     <use style="fill:#ff0000;stroke:#ff0000;stroke-linecap:butt;stroke-width:2.0;" x="119.464737511" xlink:href="#C0_0_dea3496d8a" y="167.799693631"/>
    </g>
    <g clip-path="url(#pd0d3e9b4e7)">
     <use style="fill:#ff0000;stroke:#ff0000;stroke-linecap:butt;stroke-width:2.0;" x="127.503308525" xlink:href="#C0_0_dea3496d8a" y="155.819585458"/>
    </g>
    <g clip-path="url(#pd0d3e9b4e7)">
     <use style="fill:#ff0000;stroke:#ff0000;stroke-linecap:butt;stroke-width:2.0;" x="150.322477854" xlink:href="#C0_0_dea3496d8a" y="136.236724834"/>
    </g>
    <g clip-path="url(#pd0d3e9b4e7)">
     <use style="fill:#ff0000;stroke:#ff0000;stroke-linecap:butt;stroke-width:2.0;" x="165.492039283" xlink:href="#C0_0_dea3496d8a" y="115.304134501"/>
    </g>
    <g clip-path="url(#pd0d3e9b4e7)">
     <use style="fill:#ff0000;stroke:#ff0000;stroke-linecap:butt;stroke-width:2.0;" x="187.403628013" xlink:href="#C0_0_dea3496d8a" y="28.7832231904"/>
    </g>
    <g clip-path="url(#pd0d3e9b4e7)">
     <use style="fill:#ff0000;stroke:#ff0000;stroke-linecap:butt;stroke-width:2.0;" x="295.14641047" xlink:href="#C0_0_dea3496d8a" y="323.331590535"/>
    </g>
    <g clip-path="url(#pd0d3e9b4e7)">
     <use style="fill:#ff0000;stroke:#ff0000;stroke-linecap:butt;stroke-width:2.0;" x="336.506154879" xlink:href="#C0_0_dea3496d8a" y="300.086250233"/>
    </g>
    <g clip-path="url(#pd0d3e9b4e7)">
     <use style="fill:#ff0000;stroke:#ff0000;stroke-linecap:butt;stroke-width:2.0;" x="373.198341926" xlink:href="#C0_0_dea3496d8a" y="268.585985379"/>
    </g>
    <g clip-path="url(#pd0d3e9b4e7)">
     <use style="fill:#ff0000;stroke:#ff0000;stroke-linecap:butt;stroke-width:2.0;" x="389.923755809" xlink:href="#C0_0_dea3496d8a" y="270.906023967"/>
    </g>
    <g clip-path="url(#pd0d3e9b4e7)">
     <use style="fill:#ff0000;stroke:#ff0000;stroke-linecap:butt;stroke-width:2.0;" x="413.00223388" xlink:href="#C0_0_dea3496d8a" y="255.75157731"/>
    </g>
    <g clip-path="url(#pd0d3e9b4e7)">
     <use style="fill:#ff0000;stroke:#ff0000;stroke-linecap:butt;stroke-width:2.0;" x="434.135896384" xlink:href="#C0_0_dea3496d8a" y="256.938296318"/>
    </g>
    <g clip-path="url(#pd0d3e9b4e7)">
     <use style="fill:#ff0000;stroke:#ff0000;stroke-linecap:butt;stroke-width:2.0;" x="441.39654117" xlink:href="#C0_0_dea3496d8a" y="255.625242832"/>
    </g>
    <g clip-path="url(#pd0d3e9b4e7)">
     <use style="fill:#ff0000;stroke:#ff0000;stroke-linecap:butt;stroke-width:2.0;" x="443.211702367" xlink:href="#C0_0_dea3496d8a" y="252.796101125"/>
    </g>
    <g clip-path="url(#pd0d3e9b4e7)">
     <use style="fill:#ff0000;stroke:#ff0000;stroke-linecap:butt;stroke-width:2.0;" x="451.250273381" xlink:href="#C0_0_dea3496d8a" y="253.475410167"/>
    </g>
    <g clip-path="url(#pd0d3e9b4e7)">
     <use style="fill:#ff0000;stroke:#ff0000;stroke-linecap:butt;stroke-width:2.0;" x="122.317133677" xlink:href="#C0_0_dea3496d8a" y="172.812332814"/>
    </g>
    <g clip-path="url(#pd0d3e9b4e7)">
     <use style="fill:#ff0000;stroke:#ff0000;stroke-linecap:butt;stroke-width:2.0;" x="123.484023018" xlink:href="#C0_0_dea3496d8a" y="171.464801114"/>
    </g>
    <g clip-path="url(#pd0d3e9b4e7)">
     <use style="fill:#ff0000;stroke:#ff0000;stroke-linecap:butt;stroke-width:2.0;" x="132.689483372" xlink:href="#C0_0_dea3496d8a" y="151.428900332"/>
    </g>
    <g clip-path="url(#pd0d3e9b4e7)">
     <use style="fill:#ff0000;stroke:#ff0000;stroke-linecap:butt;stroke-width:2.0;" x="136.579114508" xlink:href="#C0_0_dea3496d8a" y="163.070081812"/>
    </g>
    <g clip-path="url(#pd0d3e9b4e7)">
     <use style="fill:#ff0000;stroke:#ff0000;stroke-linecap:butt;stroke-width:2.0;" x="149.025934142" xlink:href="#C0_0_dea3496d8a" y="153.651155278"/>
    </g>
    <g clip-path="url(#pd0d3e9b4e7)">
     <use style="fill:#ff0000;stroke:#ff0000;stroke-linecap:butt;stroke-width:2.0;" x="171.067177244" xlink:href="#C0_0_dea3496d8a" y="139.534427519"/>
    </g>
    <g clip-path="url(#pd0d3e9b4e7)">
     <use style="fill:#ff0000;stroke:#ff0000;stroke-linecap:butt;stroke-width:2.0;" x="186.236738673" xlink:href="#C0_0_dea3496d8a" y="70.6342271745"/>
    </g>
    <g clip-path="url(#pd0d3e9b4e7)">
     <use style="fill:#ff0000;stroke:#ff0000;stroke-linecap:butt;stroke-width:2.0;" x="207.370401176" xlink:href="#C0_0_dea3496d8a" y="-22.7957603068"/>
    </g>
    <g clip-path="url(#pd0d3e9b4e7)">
     <use style="fill:#ff0000;stroke:#ff0000;stroke-linecap:butt;stroke-width:2.0;" x="304.481525196" xlink:href="#C0_0_dea3496d8a" y="324.479439011"/>
    </g>
    <g clip-path="url(#pd0d3e9b4e7)">
     <use style="fill:#ff0000;stroke:#ff0000;stroke-linecap:butt;stroke-width:2.0;" x="334.950302425" xlink:href="#C0_0_dea3496d8a" y="302.867059054"/>
    </g>
    <g clip-path="url(#pd0d3e9b4e7)">
     <use style="fill:#ff0000;stroke:#ff0000;stroke-linecap:butt;stroke-width:2.0;" x="365.808042768" xlink:href="#C0_0_dea3496d8a" y="285.742929092"/>
    </g>
    <g clip-path="url(#pd0d3e9b4e7)">
     <use style="fill:#ff0000;stroke:#ff0000;stroke-linecap:butt;stroke-width:2.0;" x="389.405138324" xlink:href="#C0_0_dea3496d8a" y="271.836953786"/>
    </g>
    <g clip-path="url(#pd0d3e9b4e7)">
     <use style="fill:#ff0000;stroke:#ff0000;stroke-linecap:butt;stroke-width:2.0;" x="405.741589094" xlink:href="#C0_0_dea3496d8a" y="258.426782338"/>
    </g>
    <g clip-path="url(#pd0d3e9b4e7)">
     <use style="fill:#ff0000;stroke:#ff0000;stroke-linecap:butt;stroke-width:2.0;" x="425.838016628" xlink:href="#C0_0_dea3496d8a" y="259.158626207"/>
    </g>
    <g clip-path="url(#pd0d3e9b4e7)">
     <use style="fill:#ff0000;stroke:#ff0000;stroke-linecap:butt;stroke-width:2.0;" x="432.58004393" xlink:href="#C0_0_dea3496d8a" y="256.88541986"/>
    </g>
    <g clip-path="url(#pd0d3e9b4e7)">
     <use style="fill:#ff0000;stroke:#ff0000;stroke-linecap:butt;stroke-width:2.0;" x="439.970343087" xlink:href="#C0_0_dea3496d8a" y="253.514023351"/>
    </g>
    <g clip-path="url(#pd0d3e9b4e7)">
     <use style="fill:#ff0000;stroke:#ff0000;stroke-linecap:butt;stroke-width:2.0;" x="445.67513542" xlink:href="#C0_0_dea3496d8a" y="252.974675186"/>
    </g>
   </g>
   <g id="LineCollection_1">
    <defs>
     <path d="
M233.967 -33.6169
L233.967 -379.217" id="C1_0_a2d2a323cb"/>
    </defs>
    <g clip-path="url(#pd0d3e9b4e7)">
     <use style="fill:none;stroke:#0000ff;stroke-dasharray:6.000000,6.000000;stroke-dashoffset:0.0;stroke-linecap:butt;" x="0" xlink:href="#C1_0_a2d2a323cb" y="379.216875"/>
    </g>
   </g>
   <g id="LineCollection_2">
    <defs>
     <path d="
M56.0638 -155.468
L502.464 -155.468" id="C2_0_b035044a7d"/>
    </defs>
    <g clip-path="url(#pd0d3e9b4e7)">
     <use style="fill:none;stroke:#0000ff;stroke-dasharray:6.000000,6.000000;stroke-dashoffset:0.0;stroke-linecap:butt;" x="0" xlink:href="#C2_0_b035044a7d" y="379.216875"/>
    </g>
   </g>
   <g id="line2d_1">
    <path clip-path="url(#pd0d3e9b4e7)" d="
M56.0638 184.925
L65.1396 182.838
L73.5671 180.689
L81.3464 178.494
L89.1256 176.063
L96.2566 173.594
L102.739 171.116
L108.574 168.667
L114.408 165.979
L119.594 163.36
L124.781 160.491
L129.318 157.748
L133.856 154.756
L138.394 151.48
L142.284 148.415
L146.174 145.077
L150.063 141.43
L153.953 137.428
L157.194 133.784
L160.436 129.818
L163.677 125.486
L166.918 120.736
L170.16 115.503
L172.753 110.917
L175.346 105.926
L177.939 100.473
L180.532 94.4909
L183.125 87.8984
L185.718 80.5972
L188.311 72.4667
L190.256 65.7357
L192.201 58.3779
L194.146 50.3014
L196.09 41.3955
L198.035 31.5256
L199.98 20.5261
L201.925 8.19132
L203.235 -1
L203.235 -1" style="fill:none;stroke:#000000;stroke-width:2;"/>
   </g>
   <g id="line2d_2">
    <path clip-path="url(#pd0d3e9b4e7)" d="
M278.111 380.217
L280.107 373.446
L282.7 365.481
L285.293 358.32
L287.886 351.848
L290.479 345.97
L293.072 340.608
L295.665 335.697
L298.258 331.182
L301.499 326.025
L304.741 321.341
L307.982 317.067
L311.224 313.152
L314.465 309.552
L318.355 305.597
L322.244 301.991
L326.134 298.689
L330.023 295.654
L334.561 292.411
L339.099 289.447
L343.637 286.729
L348.823 283.885
L354.009 281.287
L359.844 278.62
L365.678 276.189
L372.161 273.729
L379.292 271.277
L386.423 269.054
L394.202 266.854
L402.63 264.701
L411.706 262.609
L421.43 260.594
L432.45 258.548
L444.119 256.616
L457.085 254.706
L470.698 252.926
L485.609 251.197
L502.464 249.474
L502.464 249.474" style="fill:none;stroke:#000000;stroke-width:2;"/>
   </g>
   <g id="matplotlib.axis_1">
    <g id="xtick_1">
     <g id="line2d_3">
      <path clip-path="url(#pd0d3e9b4e7)" d="
M120.632 345.6
L120.632 -5.68434e-14" style="fill:none;stroke:#000000;stroke-dasharray:1.000000,3.000000;stroke-dashoffset:0.0;stroke-linecap:butt;stroke-width:0.5;"/>
     </g>
     <g id="line2d_4">
      <defs>
       <path d="
M0 0
L0 -4" id="mcb557df647" style="stroke:#000000;stroke-linecap:butt;stroke-width:0.5;"/>
      </defs>
      <g>
       <use style="stroke:#000000;stroke-linecap:butt;stroke-width:0.5;" x="120.631626852" xlink:href="#mcb557df647" y="345.6"/>
      </g>
     </g>
     <g id="line2d_5">
      <defs>
       <path d="
M0 0
L0 4" id="mdad270ee8e" style="stroke:#000000;stroke-linecap:butt;stroke-width:0.5;"/>
      </defs>
      <g>
       <use style="stroke:#000000;stroke-linecap:butt;stroke-width:0.5;" x="120.631626852" xlink:href="#mdad270ee8e" y="-5.68434188608e-14"/>
      </g>
     </g>
     <g id="text_1">
      <!-- 335 -->
      <defs>
       <path d="
M40.5781 39.3125
Q47.6562 37.7969 51.625 33
Q55.6094 28.2188 55.6094 21.1875
Q55.6094 10.4062 48.1875 4.48438
Q40.7656 -1.42188 27.0938 -1.42188
Q22.5156 -1.42188 17.6562 -0.515625
Q12.7969 0.390625 7.625 2.20312
L7.625 11.7188
Q11.7188 9.32812 16.5938 8.10938
Q21.4844 6.89062 26.8125 6.89062
Q36.0781 6.89062 40.9375 10.5469
Q45.7969 14.2031 45.7969 21.1875
Q45.7969 27.6406 41.2812 31.2656
Q36.7656 34.9062 28.7188 34.9062
L20.2188 34.9062
L20.2188 43.0156
L29.1094 43.0156
Q36.375 43.0156 40.2344 45.9219
Q44.0938 48.8281 44.0938 54.2969
Q44.0938 59.9062 40.1094 62.9062
Q36.1406 65.9219 28.7188 65.9219
Q24.6562 65.9219 20.0156 65.0312
Q15.375 64.1562 9.8125 62.3125
L9.8125 71.0938
Q15.4375 72.6562 20.3438 73.4375
Q25.25 74.2188 29.5938 74.2188
Q40.8281 74.2188 47.3594 69.1094
Q53.9062 64.0156 53.9062 55.3281
Q53.9062 49.2656 50.4375 45.0938
Q46.9688 40.9219 40.5781 39.3125" id="BitstreamVeraSans-Roman-33"/>
       <path d="
M10.7969 72.9062
L49.5156 72.9062
L49.5156 64.5938
L19.8281 64.5938
L19.8281 46.7344
Q21.9688 47.4688 24.1094 47.8281
Q26.2656 48.1875 28.4219 48.1875
Q40.625 48.1875 47.75 41.5
Q54.8906 34.8125 54.8906 23.3906
Q54.8906 11.625 47.5625 5.09375
Q40.2344 -1.42188 26.9062 -1.42188
Q22.3125 -1.42188 17.5469 -0.640625
Q12.7969 0.140625 7.71875 1.70312
L7.71875 11.625
Q12.1094 9.23438 16.7969 8.0625
Q21.4844 6.89062 26.7031 6.89062
Q35.1562 6.89062 40.0781 11.3281
Q45.0156 15.7656 45.0156 23.3906
Q45.0156 31 40.0781 35.4375
Q35.1562 39.8906 26.7031 39.8906
Q22.75 39.8906 18.8125 39.0156
Q14.8906 38.1406 10.7969 36.2812
z
" id="BitstreamVeraSans-Roman-35"/>
      </defs>
      <g transform="translate(110.160689352 358.50625)scale(0.12 -0.12)">
       <use xlink:href="#BitstreamVeraSans-Roman-33"/>
       <use x="63.623046875" xlink:href="#BitstreamVeraSans-Roman-33"/>
       <use x="127.24609375" xlink:href="#BitstreamVeraSans-Roman-35"/>
      </g>
     </g>
    </g>
    <g id="xtick_2">
     <g id="line2d_6">
      <path clip-path="url(#pd0d3e9b4e7)" d="
M185.459 345.6
L185.459 -5.68434e-14" style="fill:none;stroke:#000000;stroke-dasharray:1.000000,3.000000;stroke-dashoffset:0.0;stroke-linecap:butt;stroke-width:0.5;"/>
     </g>
     <g id="line2d_7">
      <g>
       <use style="stroke:#000000;stroke-linecap:butt;stroke-width:0.5;" x="185.458812446" xlink:href="#mcb557df647" y="345.6"/>
      </g>
     </g>
     <g id="line2d_8">
      <g>
       <use style="stroke:#000000;stroke-linecap:butt;stroke-width:0.5;" x="185.458812446" xlink:href="#mdad270ee8e" y="-5.68434188608e-14"/>
      </g>
     </g>
     <g id="text_2">
      <!-- 340 -->
      <defs>
       <path d="
M31.7812 66.4062
Q24.1719 66.4062 20.3281 58.9062
Q16.5 51.4219 16.5 36.375
Q16.5 21.3906 20.3281 13.8906
Q24.1719 6.39062 31.7812 6.39062
Q39.4531 6.39062 43.2812 13.8906
Q47.125 21.3906 47.125 36.375
Q47.125 51.4219 43.2812 58.9062
Q39.4531 66.4062 31.7812 66.4062
M31.7812 74.2188
Q44.0469 74.2188 50.5156 64.5156
Q56.9844 54.8281 56.9844 36.375
Q56.9844 17.9688 50.5156 8.26562
Q44.0469 -1.42188 31.7812 -1.42188
Q19.5312 -1.42188 13.0625 8.26562
Q6.59375 17.9688 6.59375 36.375
Q6.59375 54.8281 13.0625 64.5156
Q19.5312 74.2188 31.7812 74.2188" id="BitstreamVeraSans-Roman-30"/>
       <path d="
M37.7969 64.3125
L12.8906 25.3906
L37.7969 25.3906
z

M35.2031 72.9062
L47.6094 72.9062
L47.6094 25.3906
L58.0156 25.3906
L58.0156 17.1875
L47.6094 17.1875
L47.6094 0
L37.7969 0
L37.7969 17.1875
L4.89062 17.1875
L4.89062 26.7031
z
" id="BitstreamVeraSans-Roman-34"/>
      </defs>
      <g transform="translate(174.862249946 358.50625)scale(0.12 -0.12)">
       <use xlink:href="#BitstreamVeraSans-Roman-33"/>
       <use x="63.623046875" xlink:href="#BitstreamVeraSans-Roman-34"/>
       <use x="127.24609375" xlink:href="#BitstreamVeraSans-Roman-30"/>
      </g>
     </g>
    </g>
    <g id="xtick_3">
     <g id="line2d_9">
      <path clip-path="url(#pd0d3e9b4e7)" d="
M250.286 345.6
L250.286 -5.68434e-14" style="fill:none;stroke:#000000;stroke-dasharray:1.000000,3.000000;stroke-dashoffset:0.0;stroke-linecap:butt;stroke-width:0.5;"/>
     </g>
     <g id="line2d_10">
      <g>
       <use style="stroke:#000000;stroke-linecap:butt;stroke-width:0.5;" x="250.285998039" xlink:href="#mcb557df647" y="345.6"/>
      </g>
     </g>
     <g id="line2d_11">
      <g>
       <use style="stroke:#000000;stroke-linecap:butt;stroke-width:0.5;" x="250.285998039" xlink:href="#mdad270ee8e" y="-5.68434188608e-14"/>
      </g>
     </g>
     <g id="text_3">
      <!-- 345 -->
      <g transform="translate(239.815060539 358.50625)scale(0.12 -0.12)">
       <use xlink:href="#BitstreamVeraSans-Roman-33"/>
       <use x="63.623046875" xlink:href="#BitstreamVeraSans-Roman-34"/>
       <use x="127.24609375" xlink:href="#BitstreamVeraSans-Roman-35"/>
      </g>
     </g>
    </g>
    <g id="xtick_4">
     <g id="line2d_12">
      <path clip-path="url(#pd0d3e9b4e7)" d="
M315.113 345.6
L315.113 -5.68434e-14" style="fill:none;stroke:#000000;stroke-dasharray:1.000000,3.000000;stroke-dashoffset:0.0;stroke-linecap:butt;stroke-width:0.5;"/>
     </g>
     <g id="line2d_13">
      <g>
       <use style="stroke:#000000;stroke-linecap:butt;stroke-width:0.5;" x="315.113183633" xlink:href="#mcb557df647" y="345.6"/>
      </g>
     </g>
     <g id="line2d_14">
      <g>
       <use style="stroke:#000000;stroke-linecap:butt;stroke-width:0.5;" x="315.113183633" xlink:href="#mdad270ee8e" y="-5.68434188608e-14"/>
      </g>
     </g>
     <g id="text_4">
      <!-- 350 -->
      <g transform="translate(304.516621133 358.50625)scale(0.12 -0.12)">
       <use xlink:href="#BitstreamVeraSans-Roman-33"/>
       <use x="63.623046875" xlink:href="#BitstreamVeraSans-Roman-35"/>
       <use x="127.24609375" xlink:href="#BitstreamVeraSans-Roman-30"/>
      </g>
     </g>
    </g>
    <g id="xtick_5">
     <g id="line2d_15">
      <path clip-path="url(#pd0d3e9b4e7)" d="
M379.94 345.6
L379.94 -5.68434e-14" style="fill:none;stroke:#000000;stroke-dasharray:1.000000,3.000000;stroke-dashoffset:0.0;stroke-linecap:butt;stroke-width:0.5;"/>
     </g>
     <g id="line2d_16">
      <g>
       <use style="stroke:#000000;stroke-linecap:butt;stroke-width:0.5;" x="379.940369227" xlink:href="#mcb557df647" y="345.6"/>
      </g>
     </g>
     <g id="line2d_17">
      <g>
       <use style="stroke:#000000;stroke-linecap:butt;stroke-width:0.5;" x="379.940369227" xlink:href="#mdad270ee8e" y="-5.68434188608e-14"/>
      </g>
     </g>
     <g id="text_5">
      <!-- 355 -->
      <g transform="translate(369.469431727 358.50625)scale(0.12 -0.12)">
       <use xlink:href="#BitstreamVeraSans-Roman-33"/>
       <use x="63.623046875" xlink:href="#BitstreamVeraSans-Roman-35"/>
       <use x="127.24609375" xlink:href="#BitstreamVeraSans-Roman-35"/>
      </g>
     </g>
    </g>
    <g id="xtick_6">
     <g id="line2d_18">
      <path clip-path="url(#pd0d3e9b4e7)" d="
M444.768 345.6
L444.768 -5.68434e-14" style="fill:none;stroke:#000000;stroke-dasharray:1.000000,3.000000;stroke-dashoffset:0.0;stroke-linecap:butt;stroke-width:0.5;"/>
     </g>
     <g id="line2d_19">
      <g>
       <use style="stroke:#000000;stroke-linecap:butt;stroke-width:0.5;" x="444.767554821" xlink:href="#mcb557df647" y="345.6"/>
      </g>
     </g>
     <g id="line2d_20">
      <g>
       <use style="stroke:#000000;stroke-linecap:butt;stroke-width:0.5;" x="444.767554821" xlink:href="#mdad270ee8e" y="-5.68434188608e-14"/>
      </g>
     </g>
     <g id="text_6">
      <!-- 360 -->
      <defs>
       <path d="
M33.0156 40.375
Q26.375 40.375 22.4844 35.8281
Q18.6094 31.2969 18.6094 23.3906
Q18.6094 15.5312 22.4844 10.9531
Q26.375 6.39062 33.0156 6.39062
Q39.6562 6.39062 43.5312 10.9531
Q47.4062 15.5312 47.4062 23.3906
Q47.4062 31.2969 43.5312 35.8281
Q39.6562 40.375 33.0156 40.375
M52.5938 71.2969
L52.5938 62.3125
Q48.875 64.0625 45.0938 64.9844
Q41.3125 65.9219 37.5938 65.9219
Q27.8281 65.9219 22.6719 59.3281
Q17.5312 52.7344 16.7969 39.4062
Q19.6719 43.6562 24.0156 45.9219
Q28.375 48.1875 33.5938 48.1875
Q44.5781 48.1875 50.9531 41.5156
Q57.3281 34.8594 57.3281 23.3906
Q57.3281 12.1562 50.6875 5.35938
Q44.0469 -1.42188 33.0156 -1.42188
Q20.3594 -1.42188 13.6719 8.26562
Q6.98438 17.9688 6.98438 36.375
Q6.98438 53.6562 15.1875 63.9375
Q23.3906 74.2188 37.2031 74.2188
Q40.9219 74.2188 44.7031 73.4844
Q48.4844 72.75 52.5938 71.2969" id="BitstreamVeraSans-Roman-36"/>
      </defs>
      <g transform="translate(434.170992321 358.50625)scale(0.12 -0.12)">
       <use xlink:href="#BitstreamVeraSans-Roman-33"/>
       <use x="63.623046875" xlink:href="#BitstreamVeraSans-Roman-36"/>
       <use x="127.24609375" xlink:href="#BitstreamVeraSans-Roman-30"/>
      </g>
     </g>
    </g>
    <g id="text_7">
     <!-- Solvent electron density / nm$^{-3}$ -->
     <defs>
      <path d="
M9.51562 7.71875
Q11.8594 4.29688 15.8125 2.64062
Q19.7812 0.984375 24.3125 0.984375
Q30.125 0.984375 32.5625 5.9375
Q35.0156 10.8906 35.0156 17.1875
Q35.0156 20.0156 34.5 22.8438
Q33.9844 25.6875 32.7656 28.125
Q31.5469 30.5625 29.4219 32.0312
Q27.2969 33.5 24.2188 33.5
L17.5781 33.5
Q16.7031 33.5 16.7031 34.4219
L16.7031 35.2969
Q16.7031 36.0781 17.5781 36.0781
L23.0938 36.5312
Q26.6094 36.5312 28.9219 39.1562
Q31.25 41.7969 32.3281 45.5781
Q33.4062 49.3594 33.4062 52.7812
Q33.4062 57.5625 31.1562 60.6406
Q28.9062 63.7188 24.3125 63.7188
Q20.5156 63.7188 17.0469 62.2812
Q13.5781 60.8438 11.5312 57.9062
Q11.7188 57.9531 11.8594 57.9844
Q12.0156 58.0156 12.2031 58.0156
Q14.4531 58.0156 15.9688 56.4531
Q17.4844 54.8906 17.4844 52.6875
Q17.4844 50.5312 15.9688 48.9688
Q14.4531 47.4062 12.2031 47.4062
Q10.0156 47.4062 8.45312 48.9688
Q6.89062 50.5312 6.89062 52.6875
Q6.89062 56.9844 9.46875 60.1562
Q12.0625 63.3281 16.1406 64.9688
Q20.2188 66.6094 24.3125 66.6094
Q27.3438 66.6094 30.7031 65.7031
Q34.0781 64.7969 36.8125 63.1094
Q39.5469 61.4219 41.2812 58.7812
Q43.0156 56.1562 43.0156 52.7812
Q43.0156 48.5781 41.1406 45.0156
Q39.2656 41.4531 35.9844 38.8594
Q32.7188 36.2812 28.8125 35.0156
Q33.1562 34.1875 37.0625 31.7344
Q40.9688 29.2969 43.3281 25.4844
Q45.7031 21.6875 45.7031 17.2812
Q45.7031 11.7656 42.6719 7.29688
Q39.6562 2.82812 34.7188 0.3125
Q29.7812 -2.20312 24.3125 -2.20312
Q19.625 -2.20312 14.9062 -0.40625
Q10.2031 1.375 7.20312 4.9375
Q4.20312 8.5 4.20312 13.4844
Q4.20312 15.9688 5.85938 17.625
Q7.51562 19.2812 10.0156 19.2812
Q11.625 19.2812 12.9688 18.5312
Q14.3125 17.7812 15.0625 16.4062
Q15.8281 15.0469 15.8281 13.4844
Q15.8281 11.0312 14.1094 9.375
Q12.4062 7.71875 10.0156 7.71875
z
" id="Cmr10-33"/>
      <path id="BitstreamVeraSans-Roman-20"/>
      <path d="
M10.2031 23
Q9.375 23 8.82812 23.625
Q8.29688 24.2656 8.29688 25
Q8.29688 25.7344 8.82812 26.3594
Q9.375 27 10.2031 27
L67.5781 27
Q68.3594 27 68.875 26.3594
Q69.3906 25.7344 69.3906 25
Q69.3906 24.2656 68.875 23.625
Q68.3594 23 67.5781 23
z
" id="Cmsy10-a1"/>
      <path d="
M54.8906 33.0156
L54.8906 0
L45.9062 0
L45.9062 32.7188
Q45.9062 40.4844 42.875 44.3281
Q39.8438 48.1875 33.7969 48.1875
Q26.5156 48.1875 22.3125 43.5469
Q18.1094 38.9219 18.1094 30.9062
L18.1094 0
L9.07812 0
L9.07812 54.6875
L18.1094 54.6875
L18.1094 46.1875
Q21.3438 51.125 25.7031 53.5625
Q30.0781 56 35.7969 56
Q45.2188 56 50.0469 50.1719
Q54.8906 44.3438 54.8906 33.0156" id="BitstreamVeraSans-Roman-6e"/>
      <path d="
M52 44.1875
Q55.375 50.25 60.0625 53.125
Q64.75 56 71.0938 56
Q79.6406 56 84.2812 50.0156
Q88.9219 44.0469 88.9219 33.0156
L88.9219 0
L79.8906 0
L79.8906 32.7188
Q79.8906 40.5781 77.0938 44.375
Q74.3125 48.1875 68.6094 48.1875
Q61.625 48.1875 57.5625 43.5469
Q53.5156 38.9219 53.5156 30.9062
L53.5156 0
L44.4844 0
L44.4844 32.7188
Q44.4844 40.625 41.7031 44.4062
Q38.9219 48.1875 33.1094 48.1875
Q26.2188 48.1875 22.1562 43.5312
Q18.1094 38.875 18.1094 30.9062
L18.1094 0
L9.07812 0
L9.07812 54.6875
L18.1094 54.6875
L18.1094 46.1875
Q21.1875 51.2188 25.4844 53.6094
Q29.7812 56 35.6875 56
Q41.6562 56 45.8281 52.9688
Q50 49.9531 52 44.1875" id="BitstreamVeraSans-Roman-6d"/>
      <path d="
M30.6094 48.3906
Q23.3906 48.3906 19.1875 42.75
Q14.9844 37.1094 14.9844 27.2969
Q14.9844 17.4844 19.1562 11.8438
Q23.3438 6.20312 30.6094 6.20312
Q37.7969 6.20312 41.9844 11.8594
Q46.1875 17.5312 46.1875 27.2969
Q46.1875 37.0156 41.9844 42.7031
Q37.7969 48.3906 30.6094 48.3906
M30.6094 56
Q42.3281 56 49.0156 48.375
Q55.7188 40.7656 55.7188 27.2969
Q55.7188 13.875 49.0156 6.21875
Q42.3281 -1.42188 30.6094 -1.42188
Q18.8438 -1.42188 12.1719 6.21875
Q5.51562 13.875 5.51562 27.2969
Q5.51562 40.7656 12.1719 48.375
Q18.8438 56 30.6094 56" id="BitstreamVeraSans-Roman-6f"/>
      <path d="
M9.42188 75.9844
L18.4062 75.9844
L18.4062 0
L9.42188 0
z
" id="BitstreamVeraSans-Roman-6c"/>
      <path d="
M56.2031 29.5938
L56.2031 25.2031
L14.8906 25.2031
Q15.4844 15.9219 20.4844 11.0625
Q25.4844 6.20312 34.4219 6.20312
Q39.5938 6.20312 44.4531 7.46875
Q49.3125 8.73438 54.1094 11.2812
L54.1094 2.78125
Q49.2656 0.734375 44.1875 -0.34375
Q39.1094 -1.42188 33.8906 -1.42188
Q20.7969 -1.42188 13.1562 6.1875
Q5.51562 13.8125 5.51562 26.8125
Q5.51562 40.2344 12.7656 48.1094
Q20.0156 56 32.3281 56
Q43.3594 56 49.7812 48.8906
Q56.2031 41.7969 56.2031 29.5938
M47.2188 32.2344
Q47.125 39.5938 43.0938 43.9844
Q39.0625 48.3906 32.4219 48.3906
Q24.9062 48.3906 20.3906 44.1406
Q15.875 39.8906 15.1875 32.1719
z
" id="BitstreamVeraSans-Roman-65"/>
      <path d="
M53.5156 70.5156
L53.5156 60.8906
Q47.9062 63.5781 42.9219 64.8906
Q37.9375 66.2188 33.2969 66.2188
Q25.25 66.2188 20.875 63.0938
Q16.5 59.9688 16.5 54.2031
Q16.5 49.3594 19.4062 46.8906
Q22.3125 44.4375 30.4219 42.9219
L36.375 41.7031
Q47.4062 39.5938 52.6562 34.2969
Q57.9062 29 57.9062 20.125
Q57.9062 9.51562 50.7969 4.04688
Q43.7031 -1.42188 29.9844 -1.42188
Q24.8125 -1.42188 18.9688 -0.25
Q13.1406 0.921875 6.89062 3.21875
L6.89062 13.375
Q12.8906 10.0156 18.6562 8.29688
Q24.4219 6.59375 29.9844 6.59375
Q38.4219 6.59375 43.0156 9.90625
Q47.6094 13.2344 47.6094 19.3906
Q47.6094 24.75 44.3125 27.7812
Q41.0156 30.8125 33.5 32.3281
L27.4844 33.5
Q16.4531 35.6875 11.5156 40.375
Q6.59375 45.0625 6.59375 53.4219
Q6.59375 63.0938 13.4062 68.6562
Q20.2188 74.2188 32.1719 74.2188
Q37.3125 74.2188 42.625 73.2812
Q47.9531 72.3594 53.5156 70.5156" id="BitstreamVeraSans-Roman-53"/>
      <path d="
M9.42188 54.6875
L18.4062 54.6875
L18.4062 0
L9.42188 0
z

M9.42188 75.9844
L18.4062 75.9844
L18.4062 64.5938
L9.42188 64.5938
z
" id="BitstreamVeraSans-Roman-69"/>
      <path d="
M32.1719 -5.07812
Q28.375 -14.8438 24.75 -17.8125
Q21.1406 -20.7969 15.0938 -20.7969
L7.90625 -20.7969
L7.90625 -13.2812
L13.1875 -13.2812
Q16.8906 -13.2812 18.9375 -11.5156
Q21 -9.76562 23.4844 -3.21875
L25.0938 0.875
L2.98438 54.6875
L12.5 54.6875
L29.5938 11.9219
L46.6875 54.6875
L56.2031 54.6875
z
" id="BitstreamVeraSans-Roman-79"/>
      <path d="
M2.98438 54.6875
L12.5 54.6875
L29.5938 8.79688
L46.6875 54.6875
L56.2031 54.6875
L35.6875 0
L23.4844 0
z
" id="BitstreamVeraSans-Roman-76"/>
      <path d="
M45.4062 46.3906
L45.4062 75.9844
L54.3906 75.9844
L54.3906 0
L45.4062 0
L45.4062 8.20312
Q42.5781 3.32812 38.25 0.953125
Q33.9375 -1.42188 27.875 -1.42188
Q17.9688 -1.42188 11.7344 6.48438
Q5.51562 14.4062 5.51562 27.2969
Q5.51562 40.1875 11.7344 48.0938
Q17.9688 56 27.875 56
Q33.9375 56 38.25 53.625
Q42.5781 51.2656 45.4062 46.3906
M14.7969 27.2969
Q14.7969 17.3906 18.875 11.75
Q22.9531 6.10938 30.0781 6.10938
Q37.2031 6.10938 41.2969 11.75
Q45.4062 17.3906 45.4062 27.2969
Q45.4062 37.2031 41.2969 42.8438
Q37.2031 48.4844 30.0781 48.4844
Q22.9531 48.4844 18.875 42.8438
Q14.7969 37.2031 14.7969 27.2969" id="BitstreamVeraSans-Roman-64"/>
      <path d="
M18.3125 70.2188
L18.3125 54.6875
L36.8125 54.6875
L36.8125 47.7031
L18.3125 47.7031
L18.3125 18.0156
Q18.3125 11.3281 20.1406 9.42188
Q21.9688 7.51562 27.5938 7.51562
L36.8125 7.51562
L36.8125 0
L27.5938 0
Q17.1875 0 13.2344 3.875
Q9.28125 7.76562 9.28125 18.0156
L9.28125 47.7031
L2.6875 47.7031
L2.6875 54.6875
L9.28125 54.6875
L9.28125 70.2188
z
" id="BitstreamVeraSans-Roman-74"/>
      <path d="
M25.3906 72.9062
L33.6875 72.9062
L8.29688 -9.28125
L0 -9.28125
z
" id="BitstreamVeraSans-Roman-2f"/>
      <path d="
M41.1094 46.2969
Q39.5938 47.1719 37.8125 47.5781
Q36.0312 48 33.8906 48
Q26.2656 48 22.1875 43.0469
Q18.1094 38.0938 18.1094 28.8125
L18.1094 0
L9.07812 0
L9.07812 54.6875
L18.1094 54.6875
L18.1094 46.1875
Q20.9531 51.1719 25.4844 53.5781
Q30.0312 56 36.5312 56
Q37.4531 56 38.5781 55.875
Q39.7031 55.7656 41.0625 55.5156
z
" id="BitstreamVeraSans-Roman-72"/>
      <path d="
M44.2812 53.0781
L44.2812 44.5781
Q40.4844 46.5312 36.375 47.5
Q32.2812 48.4844 27.875 48.4844
Q21.1875 48.4844 17.8438 46.4375
Q14.5 44.3906 14.5 40.2812
Q14.5 37.1562 16.8906 35.375
Q19.2812 33.5938 26.5156 31.9844
L29.5938 31.2969
Q39.1562 29.25 43.1875 25.5156
Q47.2188 21.7812 47.2188 15.0938
Q47.2188 7.46875 41.1875 3.01562
Q35.1562 -1.42188 24.6094 -1.42188
Q20.2188 -1.42188 15.4531 -0.5625
Q10.6875 0.296875 5.42188 2
L5.42188 11.2812
Q10.4062 8.6875 15.2344 7.39062
Q20.0625 6.10938 24.8125 6.10938
Q31.1562 6.10938 34.5625 8.28125
Q37.9844 10.4531 37.9844 14.4062
Q37.9844 18.0625 35.5156 20.0156
Q33.0625 21.9688 24.7031 23.7812
L21.5781 24.5156
Q13.2344 26.2656 9.51562 29.9062
Q5.8125 33.5469 5.8125 39.8906
Q5.8125 47.6094 11.2812 51.7969
Q16.75 56 26.8125 56
Q31.7812 56 36.1719 55.2656
Q40.5781 54.5469 44.2812 53.0781" id="BitstreamVeraSans-Roman-73"/>
      <path d="
M48.7812 52.5938
L48.7812 44.1875
Q44.9688 46.2969 41.1406 47.3438
Q37.3125 48.3906 33.4062 48.3906
Q24.6562 48.3906 19.8125 42.8438
Q14.9844 37.3125 14.9844 27.2969
Q14.9844 17.2812 19.8125 11.7344
Q24.6562 6.20312 33.4062 6.20312
Q37.3125 6.20312 41.1406 7.25
Q44.9688 8.29688 48.7812 10.4062
L48.7812 2.09375
Q45.0156 0.34375 40.9844 -0.53125
Q36.9688 -1.42188 32.4219 -1.42188
Q20.0625 -1.42188 12.7812 6.34375
Q5.51562 14.1094 5.51562 27.2969
Q5.51562 40.6719 12.8594 48.3281
Q20.2188 56 33.0156 56
Q37.1562 56 41.1094 55.1406
Q45.0625 54.2969 48.7812 52.5938" id="BitstreamVeraSans-Roman-63"/>
     </defs>
     <g transform="translate(168.52375 379.216875)scale(0.14 -0.14)">
      <use transform="translate(0.0 21.8578125)" xlink:href="#BitstreamVeraSans-Roman-53"/>
      <use transform="translate(63.4765625 21.8578125)" xlink:href="#BitstreamVeraSans-Roman-6f"/>
      <use transform="translate(124.658203125 21.8578125)" xlink:href="#BitstreamVeraSans-Roman-6c"/>
      <use transform="translate(152.44140625 21.8578125)" xlink:href="#BitstreamVeraSans-Roman-76"/>
      <use transform="translate(211.62109375 21.8578125)" xlink:href="#BitstreamVeraSans-Roman-65"/>
      <use transform="translate(273.14453125 21.8578125)" xlink:href="#BitstreamVeraSans-Roman-6e"/>
      <use transform="translate(336.5234375 21.8578125)" xlink:href="#BitstreamVeraSans-Roman-74"/>
      <use transform="translate(375.732421875 21.8578125)" xlink:href="#BitstreamVeraSans-Roman-20"/>
      <use transform="translate(407.51953125 21.8578125)" xlink:href="#BitstreamVeraSans-Roman-65"/>
      <use transform="translate(469.04296875 21.8578125)" xlink:href="#BitstreamVeraSans-Roman-6c"/>
      <use transform="translate(496.826171875 21.8578125)" xlink:href="#BitstreamVeraSans-Roman-65"/>
      <use transform="translate(558.349609375 21.8578125)" xlink:href="#BitstreamVeraSans-Roman-63"/>
      <use transform="translate(613.330078125 21.8578125)" xlink:href="#BitstreamVeraSans-Roman-74"/>
      <use transform="translate(652.5390625 21.8578125)" xlink:href="#BitstreamVeraSans-Roman-72"/>
      <use transform="translate(693.65234375 21.8578125)" xlink:href="#BitstreamVeraSans-Roman-6f"/>
      <use transform="translate(754.833984375 21.8578125)" xlink:href="#BitstreamVeraSans-Roman-6e"/>
      <use transform="translate(818.212890625 21.8578125)" xlink:href="#BitstreamVeraSans-Roman-20"/>
      <use transform="translate(850.0 21.8578125)" xlink:href="#BitstreamVeraSans-Roman-64"/>
      <use transform="translate(913.4765625 21.8578125)" xlink:href="#BitstreamVeraSans-Roman-65"/>
      <use transform="translate(975.0 21.8578125)" xlink:href="#BitstreamVeraSans-Roman-6e"/>
      <use transform="translate(1038.37890625 21.8578125)" xlink:href="#BitstreamVeraSans-Roman-73"/>
      <use transform="translate(1090.47851562 21.8578125)" xlink:href="#BitstreamVeraSans-Roman-69"/>
      <use transform="translate(1118.26171875 21.8578125)" xlink:href="#BitstreamVeraSans-Roman-74"/>
      <use transform="translate(1157.47070312 21.8578125)" xlink:href="#BitstreamVeraSans-Roman-79"/>
      <use transform="translate(1216.65039062 21.8578125)" xlink:href="#BitstreamVeraSans-Roman-20"/>
      <use transform="translate(1248.4375 21.8578125)" xlink:href="#BitstreamVeraSans-Roman-2f"/>
      <use transform="translate(1282.12890625 21.8578125)" xlink:href="#BitstreamVeraSans-Roman-20"/>
      <use transform="translate(1313.91601562 21.8578125)" xlink:href="#BitstreamVeraSans-Roman-6e"/>
      <use transform="translate(1377.29492188 21.8578125)" xlink:href="#BitstreamVeraSans-Roman-6d"/>
      <use transform="translate(1474.70703125 64.3734375)scale(0.7)" xlink:href="#Cmsy10-a1"/>
      <use transform="translate(1529.08691406 64.3734375)scale(0.7)" xlink:href="#Cmr10-33"/>
     </g>
    </g>
   </g>
   <g id="matplotlib.axis_2">
    <g id="ytick_1">
     <g id="line2d_21">
      <path clip-path="url(#pd0d3e9b4e7)" d="
M56.0638 345.6
L502.464 345.6" style="fill:none;stroke:#000000;stroke-dasharray:1.000000,3.000000;stroke-dashoffset:0.0;stroke-linecap:butt;stroke-width:0.5;"/>
     </g>
     <g id="line2d_22">
      <defs>
       <path d="
M0 0
L4 0" id="mc8fcea1516" style="stroke:#000000;stroke-linecap:butt;stroke-width:0.5;"/>
      </defs>
      <g>
       <use style="stroke:#000000;stroke-linecap:butt;stroke-width:0.5;" x="56.06375" xlink:href="#mc8fcea1516" y="345.6"/>
      </g>
     </g>
     <g id="line2d_23">
      <defs>
       <path d="
M0 0
L-4 0" id="m0d5b0a6425" style="stroke:#000000;stroke-linecap:butt;stroke-width:0.5;"/>
      </defs>
      <g>
       <use style="stroke:#000000;stroke-linecap:butt;stroke-width:0.5;" x="502.46375" xlink:href="#m0d5b0a6425" y="345.6"/>
      </g>
     </g>
     <g id="text_8">
      <!-- 500 -->
      <g transform="translate(30.881875 349.9678125)scale(0.12 -0.12)">
       <use xlink:href="#BitstreamVeraSans-Roman-35"/>
       <use x="63.623046875" xlink:href="#BitstreamVeraSans-Roman-30"/>
       <use x="127.24609375" xlink:href="#BitstreamVeraSans-Roman-30"/>
      </g>
     </g>
    </g>
    <g id="ytick_2">
     <g id="line2d_24">
      <path clip-path="url(#pd0d3e9b4e7)" d="
M56.0638 286.014
L502.464 286.014" style="fill:none;stroke:#000000;stroke-dasharray:1.000000,3.000000;stroke-dashoffset:0.0;stroke-linecap:butt;stroke-width:0.5;"/>
     </g>
     <g id="line2d_25">
      <g>
       <use style="stroke:#000000;stroke-linecap:butt;stroke-width:0.5;" x="56.06375" xlink:href="#mc8fcea1516" y="286.013793103"/>
      </g>
     </g>
     <g id="line2d_26">
      <g>
       <use style="stroke:#000000;stroke-linecap:butt;stroke-width:0.5;" x="502.46375" xlink:href="#m0d5b0a6425" y="286.013793103"/>
      </g>
     </g>
     <g id="text_9">
      <!-- 1000 -->
      <defs>
       <path d="
M12.4062 8.29688
L28.5156 8.29688
L28.5156 63.9219
L10.9844 60.4062
L10.9844 69.3906
L28.4219 72.9062
L38.2812 72.9062
L38.2812 8.29688
L54.3906 8.29688
L54.3906 0
L12.4062 0
z
" id="BitstreamVeraSans-Roman-31"/>
      </defs>
      <g transform="translate(23.63875 290.381605603)scale(0.12 -0.12)">
       <use xlink:href="#BitstreamVeraSans-Roman-31"/>
       <use x="63.623046875" xlink:href="#BitstreamVeraSans-Roman-30"/>
       <use x="127.24609375" xlink:href="#BitstreamVeraSans-Roman-30"/>
       <use x="190.869140625" xlink:href="#BitstreamVeraSans-Roman-30"/>
      </g>
     </g>
    </g>
    <g id="ytick_3">
     <g id="line2d_27">
      <path clip-path="url(#pd0d3e9b4e7)" d="
M56.0638 226.428
L502.464 226.428" style="fill:none;stroke:#000000;stroke-dasharray:1.000000,3.000000;stroke-dashoffset:0.0;stroke-linecap:butt;stroke-width:0.5;"/>
     </g>
     <g id="line2d_28">
      <g>
       <use style="stroke:#000000;stroke-linecap:butt;stroke-width:0.5;" x="56.06375" xlink:href="#mc8fcea1516" y="226.427586207"/>
      </g>
     </g>
     <g id="line2d_29">
      <g>
       <use style="stroke:#000000;stroke-linecap:butt;stroke-width:0.5;" x="502.46375" xlink:href="#m0d5b0a6425" y="226.427586207"/>
      </g>
     </g>
     <g id="text_10">
      <!-- 1500 -->
      <g transform="translate(23.63875 230.795398707)scale(0.12 -0.12)">
       <use xlink:href="#BitstreamVeraSans-Roman-31"/>
       <use x="63.623046875" xlink:href="#BitstreamVeraSans-Roman-35"/>
       <use x="127.24609375" xlink:href="#BitstreamVeraSans-Roman-30"/>
       <use x="190.869140625" xlink:href="#BitstreamVeraSans-Roman-30"/>
      </g>
     </g>
    </g>
    <g id="ytick_4">
     <g id="line2d_30">
      <path clip-path="url(#pd0d3e9b4e7)" d="
M56.0638 166.841
L502.464 166.841" style="fill:none;stroke:#000000;stroke-dasharray:1.000000,3.000000;stroke-dashoffset:0.0;stroke-linecap:butt;stroke-width:0.5;"/>
     </g>
     <g id="line2d_31">
      <g>
       <use style="stroke:#000000;stroke-linecap:butt;stroke-width:0.5;" x="56.06375" xlink:href="#mc8fcea1516" y="166.84137931"/>
      </g>
     </g>
     <g id="line2d_32">
      <g>
       <use style="stroke:#000000;stroke-linecap:butt;stroke-width:0.5;" x="502.46375" xlink:href="#m0d5b0a6425" y="166.84137931"/>
      </g>
     </g>
     <g id="text_11">
      <!-- 2000 -->
      <defs>
       <path d="
M19.1875 8.29688
L53.6094 8.29688
L53.6094 0
L7.32812 0
L7.32812 8.29688
Q12.9375 14.1094 22.625 23.8906
Q32.3281 33.6875 34.8125 36.5312
Q39.5469 41.8438 41.4219 45.5312
Q43.3125 49.2188 43.3125 52.7812
Q43.3125 58.5938 39.2344 62.25
Q35.1562 65.9219 28.6094 65.9219
Q23.9688 65.9219 18.8125 64.3125
Q13.6719 62.7031 7.8125 59.4219
L7.8125 69.3906
Q13.7656 71.7812 18.9375 73
Q24.125 74.2188 28.4219 74.2188
Q39.75 74.2188 46.4844 68.5469
Q53.2188 62.8906 53.2188 53.4219
Q53.2188 48.9219 51.5312 44.8906
Q49.8594 40.875 45.4062 35.4062
Q44.1875 33.9844 37.6406 27.2188
Q31.1094 20.4531 19.1875 8.29688" id="BitstreamVeraSans-Roman-32"/>
      </defs>
      <g transform="translate(23.2 171.20919181)scale(0.12 -0.12)">
       <use xlink:href="#BitstreamVeraSans-Roman-32"/>
       <use x="63.623046875" xlink:href="#BitstreamVeraSans-Roman-30"/>
       <use x="127.24609375" xlink:href="#BitstreamVeraSans-Roman-30"/>
       <use x="190.869140625" xlink:href="#BitstreamVeraSans-Roman-30"/>
      </g>
     </g>
    </g>
    <g id="ytick_5">
     <g id="line2d_33">
      <path clip-path="url(#pd0d3e9b4e7)" d="
M56.0638 107.255
L502.464 107.255" style="fill:none;stroke:#000000;stroke-dasharray:1.000000,3.000000;stroke-dashoffset:0.0;stroke-linecap:butt;stroke-width:0.5;"/>
     </g>
     <g id="line2d_34">
      <g>
       <use style="stroke:#000000;stroke-linecap:butt;stroke-width:0.5;" x="56.06375" xlink:href="#mc8fcea1516" y="107.255172414"/>
      </g>
     </g>
     <g id="line2d_35">
      <g>
       <use style="stroke:#000000;stroke-linecap:butt;stroke-width:0.5;" x="502.46375" xlink:href="#m0d5b0a6425" y="107.255172414"/>
      </g>
     </g>
     <g id="text_12">
      <!-- 2500 -->
      <g transform="translate(23.2 111.622984914)scale(0.12 -0.12)">
       <use xlink:href="#BitstreamVeraSans-Roman-32"/>
       <use x="63.623046875" xlink:href="#BitstreamVeraSans-Roman-35"/>
       <use x="127.24609375" xlink:href="#BitstreamVeraSans-Roman-30"/>
       <use x="190.869140625" xlink:href="#BitstreamVeraSans-Roman-30"/>
      </g>
     </g>
    </g>
    <g id="ytick_6">
     <g id="line2d_36">
      <path clip-path="url(#pd0d3e9b4e7)" d="
M56.0638 47.669
L502.464 47.669" style="fill:none;stroke:#000000;stroke-dasharray:1.000000,3.000000;stroke-dashoffset:0.0;stroke-linecap:butt;stroke-width:0.5;"/>
     </g>
     <g id="line2d_37">
      <g>
       <use style="stroke:#000000;stroke-linecap:butt;stroke-width:0.5;" x="56.06375" xlink:href="#mc8fcea1516" y="47.6689655172"/>
      </g>
     </g>
     <g id="line2d_38">
      <g>
       <use style="stroke:#000000;stroke-linecap:butt;stroke-width:0.5;" x="502.46375" xlink:href="#m0d5b0a6425" y="47.6689655172"/>
      </g>
     </g>
     <g id="text_13">
      <!-- 3000 -->
      <g transform="translate(23.235625 52.0367780172)scale(0.12 -0.12)">
       <use xlink:href="#BitstreamVeraSans-Roman-33"/>
       <use x="63.623046875" xlink:href="#BitstreamVeraSans-Roman-30"/>
       <use x="127.24609375" xlink:href="#BitstreamVeraSans-Roman-30"/>
       <use x="190.869140625" xlink:href="#BitstreamVeraSans-Roman-30"/>
      </g>
     </g>
    </g>
    <g id="text_14">
     <!-- $R_g^2$ / nm$^2$ -->
     <defs>
      <path d="
M4.98438 0
L4.98438 2.6875
Q4.98438 2.9375 5.17188 3.21875
L20.7031 20.4062
Q24.2188 24.2188 26.4062 26.7969
Q28.6094 29.3906 30.75 32.7656
Q32.9062 36.1406 34.1562 39.625
Q35.4062 43.1094 35.4062 47.0156
Q35.4062 51.125 33.8906 54.8594
Q32.375 58.5938 29.375 60.8438
Q26.375 63.0938 22.125 63.0938
Q17.7812 63.0938 14.3125 60.4688
Q10.8438 57.8594 9.42188 53.7188
Q9.8125 53.8125 10.5 53.8125
Q12.75 53.8125 14.3281 52.2969
Q15.9219 50.7812 15.9219 48.3906
Q15.9219 46.0938 14.3281 44.5
Q12.75 42.9219 10.5 42.9219
Q8.15625 42.9219 6.5625 44.5469
Q4.98438 46.1875 4.98438 48.3906
Q4.98438 52.1562 6.39062 55.4375
Q7.8125 58.7344 10.4688 61.2969
Q13.1406 63.875 16.4844 65.2344
Q19.8281 66.6094 23.5781 66.6094
Q29.2969 66.6094 34.2188 64.1875
Q39.1562 61.7656 42.0312 57.3438
Q44.9219 52.9375 44.9219 47.0156
Q44.9219 42.6719 43.0156 38.7656
Q41.1094 34.8594 38.125 31.6562
Q35.1562 28.4688 30.5156 24.4062
Q25.875 20.3594 24.4219 19
L13.0938 8.10938
L22.7031 8.10938
Q29.7812 8.10938 34.5469 8.21875
Q39.3125 8.34375 39.5938 8.59375
Q40.7656 9.85938 42 17.8281
L44.9219 17.8281
L42.0938 0
z
" id="Cmr10-32"/>
      <path d="
M4.89062 0
Q3.90625 0 3.90625 1.3125
Q3.95312 1.5625 4.09375 2.17188
Q4.25 2.78125 4.51562 3.14062
Q4.78125 3.51562 5.17188 3.51562
Q11.2812 3.51562 13.7188 4.20312
Q14.9844 4.64062 15.5781 6.89062
L29.2969 61.8125
Q29.5 62.7969 29.5 63.1875
Q29.5 64.2656 28.3281 64.4062
Q26.4219 64.7969 21.0938 64.7969
Q20.125 64.7969 20.125 66.1094
Q20.1719 66.3594 20.3125 66.9688
Q20.4531 67.5781 20.7188 67.9375
Q21 68.3125 21.3906 68.3125
L51.7031 68.3125
Q55.3281 68.3125 59.2344 67.4844
Q63.1406 66.6562 66.4062 64.875
Q69.6719 63.0938 71.7656 60.125
Q73.875 57.1719 73.875 53.2188
Q73.875 48.1875 70.5469 44.2344
Q67.2344 40.2812 62.1562 37.625
Q57.0781 34.9688 52.2969 33.8906
Q56.2031 32.4688 58.6875 29.3594
Q61.1875 26.2656 61.1875 22.2188
Q61.1875 21.6875 61.1562 21.4062
Q61.1406 21.1406 61.0781 20.7969
L60.2969 11.9219
Q60.2031 9.96875 60.1094 8.59375
Q60.0156 7.23438 60.0156 6.39062
Q60.0156 3.65625 60.8125 2.01562
Q61.625 0.390625 64.0156 0.390625
Q67.1406 0.390625 69.5 3.29688
Q71.875 6.20312 72.6094 9.625
Q73.0469 10.5 73.5781 10.5
L74.5156 10.5
Q75.4844 10.5 75.4844 9.1875
Q74.75 6.29688 73.1562 3.70312
Q71.5781 1.125 69.1562 -0.53125
Q66.75 -2.20312 63.9219 -2.20312
Q58.0625 -2.20312 53.9375 0.40625
Q49.8125 3.03125 49.8125 8.59375
Q49.8125 10.6875 50.2031 12.3125
L52.3906 21.1875
Q52.7812 22.4062 52.7812 24.0312
Q52.7812 28.1719 49.9688 30.5312
Q47.1719 32.9062 42.9219 32.9062
L30.6094 32.9062
L24.0312 6.5
Q23.7812 5.67188 23.7812 5.07812
Q23.7812 4.04688 25 3.90625
Q26.9062 3.51562 32.1719 3.51562
Q33.2031 3.51562 33.2031 2.20312
Q32.8594 0.78125 32.6562 0.390625
Q32.4688 0 31.5 0
z

M31.2031 35.5
L42.2812 35.5
Q53.1719 35.5 58.6875 41.0156
Q61.2344 43.5625 62.7188 47.4844
Q64.2031 51.4219 64.2031 55.3281
Q64.2031 59.0312 62.0312 61.125
Q59.8594 63.2344 56.6562 64.0156
Q53.4688 64.7969 49.6094 64.7969
L42.9219 64.7969
Q40.1875 64.7969 39.2969 64.3281
Q38.4219 63.875 37.7031 61.375
z
" id="Cmmi10-52"/>
      <path d="
M1.42188 -14.3125
Q1.42188 -11.8594 3.09375 -10.0312
Q4.78125 -8.20312 7.17188 -8.20312
Q8.79688 -8.20312 9.89062 -9.20312
Q10.9844 -10.2031 10.9844 -11.8125
Q10.9844 -13.625 9.95312 -15.0625
Q8.9375 -16.5 7.32812 -17.0938
Q10.0156 -17.9219 15.7188 -17.9219
Q20.3125 -17.9219 24.125 -14.375
Q27.9375 -10.8438 29.1094 -6.20312
L31.9844 5.51562
Q26.5625 0 20.7031 0
Q16.4062 0 13.3438 2.1875
Q10.2969 4.39062 8.6875 8.04688
Q7.07812 11.7188 7.07812 15.8281
Q7.07812 20.4062 8.95312 25.4375
Q10.8438 30.4688 14.2344 34.7656
Q17.625 39.0625 22.0156 41.625
Q26.4219 44.1875 31.2969 44.1875
Q34.2344 44.1875 36.5781 42.5781
Q38.9219 40.9688 40.2812 38.2812
Q41.2656 42.1875 44.5781 42.1875
Q45.8438 42.1875 46.7188 41.4219
Q47.6094 40.6719 47.6094 39.4062
Q47.6094 39.1094 47.5781 38.9531
Q47.5625 38.8125 47.5156 38.625
L36.0781 -6.78125
Q35.2969 -9.90625 33.2031 -12.5
Q31.1094 -15.0938 28.2656 -16.8281
Q25.4375 -18.5625 22.0625 -19.5312
Q18.7031 -20.5156 15.5781 -20.5156
Q9.85938 -20.5156 5.64062 -19.4062
Q1.42188 -18.3125 1.42188 -14.3125
M20.9062 2.59375
Q27.2969 2.59375 33.5 11.375
L39.0156 33.2031
Q38.3281 36.6719 36.2812 39.1406
Q34.2344 41.6094 31.1094 41.6094
Q27.7812 41.6094 24.8281 38.8906
Q21.875 36.1875 19.9219 32.4219
Q18.0625 28.8125 16.3281 22.0469
Q14.5938 15.2812 14.5938 11.375
Q14.5938 7.95312 16.1562 5.26562
Q17.7188 2.59375 20.9062 2.59375" id="Cmmi10-67"/>
     </defs>
     <g transform="translate(18.2 206.47)rotate(-90.0)scale(0.14 -0.14)">
      <use transform="translate(0.0 40.5703125)" xlink:href="#Cmmi10-52"/>
      <use transform="translate(88.17515625 83.3734375)scale(0.7)" xlink:href="#Cmr10-32"/>
      <use transform="translate(75.87890625 15.0609375)scale(0.7)" xlink:href="#Cmmi10-67"/>
      <use transform="translate(155.18140625 40.5703125)" xlink:href="#BitstreamVeraSans-Roman-20"/>
      <use transform="translate(186.968515625 40.5703125)" xlink:href="#BitstreamVeraSans-Roman-2f"/>
      <use transform="translate(220.659921875 40.5703125)" xlink:href="#BitstreamVeraSans-Roman-20"/>
      <use transform="translate(252.44703125 40.5703125)" xlink:href="#BitstreamVeraSans-Roman-6e"/>
      <use transform="translate(315.8259375 40.5703125)" xlink:href="#BitstreamVeraSans-Roman-6d"/>
      <use transform="translate(413.238046875 83.0859375)scale(0.7)" xlink:href="#Cmr10-32"/>
     </g>
    </g>
   </g>
   <g id="patch_3">
    <path d="
M56.0638 -5.68434e-14
L502.464 -5.68434e-14" style="fill:none;stroke:#000000;"/>
   </g>
   <g id="patch_4">
    <path d="
M502.464 345.6
L502.464 -5.68434e-14" style="fill:none;stroke:#000000;"/>
   </g>
   <g id="patch_5">
    <path d="
M56.0638 345.6
L502.464 345.6" style="fill:none;stroke:#000000;"/>
   </g>
   <g id="patch_6">
    <path d="
M56.0638 345.6
L56.0638 -5.68434e-14" style="fill:none;stroke:#000000;"/>
   </g>
   <g id="text_15">
    <!-- $\rho_0$ -->
    <defs>
     <path d="
M2.78125 -18.7969
Q2.78125 -18.2188 2.875 -18.0156
L12.7969 21.9219
Q14.2031 27.2969 17.6406 32.4375
Q21.0938 37.5938 25.9688 40.8906
Q30.8594 44.1875 36.2812 44.1875
Q40.625 44.1875 43.875 41.9219
Q47.125 39.6562 48.75 35.9688
Q50.3906 32.2812 50.3906 27.875
Q50.3906 23.0469 48.4062 17.875
Q46.4375 12.7031 42.9375 8.40625
Q39.4531 4.10938 34.9062 1.48438
Q30.375 -1.125 25.3906 -1.125
Q22.4688 -1.125 19.875 0.609375
Q17.2812 2.34375 15.8281 5.17188
L9.90625 -18.4062
Q9.625 -19.8281 8.45312 -20.7031
Q7.28125 -21.5781 5.8125 -21.5781
Q4.59375 -21.5781 3.6875 -20.8125
Q2.78125 -20.0625 2.78125 -18.7969
M25.5938 1.51562
Q30.9062 1.51562 34.8281 6.95312
Q38.7656 12.4062 40.8438 19.75
Q42.9219 27.0938 42.9219 32.1719
Q42.9219 35.9844 41.25 38.7969
Q39.5938 41.6094 36.0781 41.6094
Q31.7344 41.6094 28.4062 38.3125
Q25.0938 35.0156 23.0938 30.5625
Q21.0938 26.125 19.8281 21.2969
L17.0938 10.1094
Q17.7188 6.5 19.9375 4
Q22.1719 1.51562 25.5938 1.51562" id="Cmmi10-bd"/>
     <path d="
M25 -2.20312
Q12.75 -2.20312 8.32812 7.875
Q3.90625 17.9688 3.90625 31.8906
Q3.90625 40.5781 5.48438 48.2344
Q7.07812 55.9062 11.7812 61.25
Q16.5 66.6094 25 66.6094
Q31.5938 66.6094 35.7812 63.375
Q39.9844 60.1562 42.1875 55.0469
Q44.3906 49.9531 45.1875 44.1094
Q46 38.2812 46 31.8906
Q46 23.2969 44.4062 15.7969
Q42.8281 8.29688 38.1875 3.04688
Q33.5469 -2.20312 25 -2.20312
M25 0.390625
Q30.5625 0.390625 33.2969 6.09375
Q36.0312 11.8125 36.6719 18.75
Q37.3125 25.6875 37.3125 33.5
Q37.3125 41.0156 36.6719 47.3594
Q36.0312 53.7188 33.3125 58.8594
Q30.6094 64.0156 25 64.0156
Q19.3438 64.0156 16.6094 58.8281
Q13.875 53.6562 13.2344 47.3281
Q12.5938 41.0156 12.5938 33.5
Q12.5938 27.9375 12.8594 23
Q13.1406 18.0625 14.3125 12.8125
Q15.4844 7.5625 18.0938 3.96875
Q20.7031 0.390625 25 0.390625" id="Cmr10-30"/>
    </defs>
    <g transform="translate(239.913648344 28.5944827586)scale(0.17 -0.17)">
     <use transform="translate(0.0 28.8125)" xlink:href="#Cmmi10-bd"/>
     <use transform="translate(51.708984375 3.303125)scale(0.7)" xlink:href="#Cmr10-30"/>
    </g>
   </g>
   <g id="text_16">
    <!-- $\tilde R_{g,c}^2$ -->
    <defs>
     <path d="
M8.29688 58.8906
L11.1875 62.3125
Q15.0938 66.7969 19 66.7969
Q20.9062 66.7969 23.1719 65.6719
Q25.4375 64.5469 27.7031 63.4219
Q29.9844 62.3125 31.8906 62.3125
Q35.8906 62.3125 39.5938 66.7969
L41.6094 65.0938
L38.7188 61.7188
Q34.7656 57.1719 30.9062 57.1719
Q29 57.1719 26.7344 58.3125
Q24.4688 59.4688 22.1875 60.5938
Q19.9219 61.7188 18.0156 61.7188
Q14.0156 61.7188 10.2969 57.1719
z
" id="Cmr10-7e"/>
     <path d="
M9.90625 -18.0156
Q9.90625 -17.5781 10.2969 -17.1875
Q13.9219 -13.7188 15.9219 -9.17188
Q17.9219 -4.64062 17.9219 0.390625
L17.9219 1.60938
Q16.3125 0 13.9219 0
Q11.625 0 10.0156 1.60938
Q8.40625 3.21875 8.40625 5.51562
Q8.40625 7.85938 10.0156 9.42188
Q11.625 10.9844 13.9219 10.9844
Q17.4844 10.9844 19 7.6875
Q20.5156 4.39062 20.5156 0.390625
Q20.5156 -5.17188 18.2812 -10.1719
Q16.0625 -15.1875 12.0156 -19.1875
Q11.625 -19.3906 11.375 -19.3906
Q10.8906 -19.3906 10.3906 -18.9375
Q9.90625 -18.5 9.90625 -18.0156" id="Cmmi10-3b"/>
     <path d="
M11.7188 11.9219
Q11.7188 7.5625 13.9375 4.53125
Q16.1562 1.51562 20.3125 1.51562
Q26.2656 1.51562 31.75 4.25
Q37.25 6.98438 40.7188 11.8125
Q41.0156 12.1094 41.5 12.1094
Q42 12.1094 42.5 11.5469
Q43.0156 10.9844 43.0156 10.5
Q43.0156 10.1094 42.8281 9.90625
Q39.1562 4.78125 32.9531 1.82812
Q26.7656 -1.125 20.125 -1.125
Q15.3281 -1.125 11.6719 1.14062
Q8.01562 3.42188 6 7.21875
Q4 11.0312 4 15.8281
Q4 22.5625 7.76562 29.2031
Q11.5312 35.8438 17.7812 40.0156
Q24.0312 44.1875 30.9062 44.1875
Q35.4062 44.1875 38.9844 42.0156
Q42.5781 39.8438 42.5781 35.5938
Q42.5781 32.8594 40.9844 30.9219
Q39.4062 29 36.7188 29
Q35.1094 29 34 30
Q32.9062 31 32.9062 32.625
Q32.9062 34.9688 34.6094 36.625
Q36.3281 38.2812 38.625 38.2812
L38.8125 38.2812
Q37.6406 39.9844 35.4219 40.7969
Q33.2031 41.6094 30.8125 41.6094
Q24.9531 41.6094 20.5469 36.5938
Q16.1562 31.5938 13.9375 24.625
Q11.7188 17.6719 11.7188 11.9219" id="Cmmi10-63"/>
    </defs>
    <g transform="translate(455.139904516 221.310344828)scale(0.17 -0.17)">
     <use transform="translate(10.703125 64.0859375)" xlink:href="#Cmr10-7e"/>
     <use transform="translate(0.0 40.4453125)" xlink:href="#Cmmi10-52"/>
     <use transform="translate(75.87890625 105.3734375)scale(0.7)" xlink:href="#Cmr10-32"/>
     <use transform="translate(75.87890625 14.9359375)scale(0.7)" xlink:href="#Cmmi10-67"/>
     <use transform="translate(109.272460938 14.9359375)scale(0.7)" xlink:href="#Cmmi10-3b"/>
     <use transform="translate(130.040039062 14.9359375)scale(0.7)" xlink:href="#Cmmi10-63"/>
    </g>
   </g>
  </g>
 </g>
 <defs>
  <clipPath id="pd0d3e9b4e7">
   <rect height="345.6" width="446.4" x="56.06375" y="-5.68434188608e-14"/>
  </clipPath>
 </defs>
</svg>
